<?xml version="1.0" encoding="UTF-8" standalone="no"?>
<!-- Created with Inkscape (http://www.inkscape.org/) -->

<svg
   xmlns:dc="http://purl.org/dc/elements/1.1/"
   xmlns:cc="http://creativecommons.org/ns#"
   xmlns:rdf="http://www.w3.org/1999/02/22-rdf-syntax-ns#"
   xmlns:svg="http://www.w3.org/2000/svg"
   xmlns="http://www.w3.org/2000/svg"
   xmlns:sodipodi="http://sodipodi.sourceforge.net/DTD/sodipodi-0.dtd"
   xmlns:inkscape="http://www.inkscape.org/namespaces/inkscape"
   id="svg3039"
   version="1.1"
   inkscape:version="0.48.4 r9939"
   width="64.864449"
   height="21.783897"
   xml:space="preserve"
   sodipodi:docname="login_bg2.svg"
   inkscape:export-filename="/home/anastasia/myProjects/wedday/wedday/static/img/login_bg1.png"
   inkscape:export-xdpi="90"
   inkscape:export-ydpi="90"><metadata
     id="metadata3045"><rdf:RDF><cc:Work
         rdf:about=""><dc:format>image/svg+xml</dc:format><dc:type
           rdf:resource="http://purl.org/dc/dcmitype/StillImage" /><dc:title></dc:title></cc:Work></rdf:RDF></metadata><defs
     id="defs3043" /><sodipodi:namedview
     pagecolor="#ffffff"
     bordercolor="#666666"
     borderopacity="1"
     objecttolerance="10"
     gridtolerance="10"
     guidetolerance="10"
     inkscape:pageopacity="0"
     inkscape:pageshadow="2"
     inkscape:window-width="1857"
     inkscape:window-height="1056"
     id="namedview3041"
     showgrid="false"
     fit-margin-top="0"
     fit-margin-left="0"
     fit-margin-right="0"
     fit-margin-bottom="0"
     showborder="false"
     inkscape:showpageshadow="false"
     inkscape:zoom="0.54403045"
     inkscape:cx="615.83442"
     inkscape:cy="-187.25533"
     inkscape:window-x="63"
     inkscape:window-y="24"
     inkscape:window-maximized="1"
     inkscape:current-layer="g3047" /><g
     id="g3047"
     inkscape:groupmode="layer"
     inkscape:label="ink_ext_XXXXXX"
     transform="matrix(1.25,0,0,-1.25,-348.92654,574.40265)"><path
       inkscape:connector-curvature="0"
       id="path3051"
       style="fill:#6482c3;fill-opacity:1;fill-rule:evenodd;stroke:none"
       d="m 290.931,444.427 c -0.21,-0.173 -0.461,-0.199 -0.716,-0.182 -0.546,0.037 -1.091,0.084 -1.636,0.126 -0.238,-0.134 -0.485,-0.063 -0.729,-0.034 -1.174,0.52 -1.184,0.553 -0.478,1.694 -0.864,0.419 -1.918,0.045 -2.705,0.651 -0.288,0.224 -0.913,0.325 -0.335,0.884 1.633,0.255 3.194,-0.291 4.791,-0.424 0.137,0.016 0.276,0.014 0.414,0.002 0.302,-0.013 0.583,-0.126 0.891,-0.14 1.267,-0.063 1.471,-0.305 1.512,-1.676 -0.154,-0.323 -0.457,-0.327 -0.74,-0.301 -0.715,0.065 -0.289,-0.353 -0.269,-0.6" /><path
       inkscape:connector-curvature="0"
       id="path3053"
       style="fill:#4870b4;fill-opacity:1;fill-rule:evenodd;stroke:none"
       d="m 291.747,445.157 c -0.018,0.254 0.008,0.518 -0.06,0.755 -0.217,0.736 -0.392,0.863 -1.185,0.741 -0.386,-0.06 -0.656,0.089 -0.949,0.261 0.419,0.963 1.296,0.269 1.908,0.53 0.361,0.062 0.725,0.119 1.085,0.189 0.116,0.022 0.234,0.034 0.35,0.042 0.233,0.019 0.466,0.05 0.7,0.046 0.121,-0.022 0.218,-0.084 0.296,-0.176 0.053,-0.107 0.085,-0.22 0.098,-0.337 0.012,-0.37 -0.135,-0.677 -0.38,-0.941 -0.465,-0.394 0.843,-0.848 -0.037,-1.227 -0.342,-0.081 -0.683,-0.162 -1.025,-0.241 -0.165,-0.079 -0.336,-0.076 -0.508,-0.038 -0.173,0.077 -0.273,0.207 -0.293,0.396" /><path
       inkscape:connector-curvature="0"
       id="path3055"
       style="fill:#6280c2;fill-opacity:1;fill-rule:evenodd;stroke:none"
       d="m 293.415,446.317 c 0.207,0.303 0.361,0.624 0.356,1.003 1.011,0.518 1.712,0.052 2.311,-0.731 -0.217,-0.219 -0.434,-0.44 -0.651,-0.661 -0.228,-0.016 -0.404,-0.105 -0.485,-0.337 -0.056,-0.162 -0.135,-0.31 -0.327,-0.35 -0.288,0.487 -1.172,0.304 -1.204,1.076" /><path
       inkscape:connector-curvature="0"
       id="path3057"
       style="fill:#4e7bb8;fill-opacity:1;fill-rule:evenodd;stroke:none"
       d="m 291.747,445.157 c 0.081,-0.095 0.161,-0.191 0.241,-0.287 0.115,-0.09 0.114,-0.168 -0.021,-0.234 -0.324,-0.174 -0.668,-0.249 -1.036,-0.209 -0.53,0.097 -0.446,0.594 -0.613,0.925 0.043,0.032 0.088,0.084 0.108,0.076 0.422,-0.179 0.913,-0.025 1.321,-0.271" /><path
       inkscape:connector-curvature="0"
       id="path3059"
       style="fill:#5074b6;fill-opacity:1;fill-rule:evenodd;stroke:none"
       d="m 293.415,446.317 c 0.133,-0.268 0.398,-0.281 0.645,-0.337 0.388,-0.09 0.56,-0.35 0.559,-0.739 -0.329,-0.17 -0.671,-0.269 -1.046,-0.201 0.051,0.143 0.225,0.316 0.024,0.432 -0.22,0.128 -0.457,0.2 -0.525,0.493 -0.073,0.315 0.111,0.349 0.343,0.352" /><path
       inkscape:connector-curvature="0"
       id="path3061"
       style="fill:#7e94d3;fill-opacity:1;fill-rule:evenodd;stroke:none"
       d="m 287.781,444.487 c 0.266,-0.038 0.532,-0.077 0.798,-0.117 -0.212,-0.176 -0.459,-0.169 -0.714,-0.145 -0.458,0.041 -0.917,0.075 -1.376,0.111 -0.01,0.075 -0.016,0.15 -0.016,0.227 0.454,0.278 0.878,0.053 1.308,-0.076" /><path
       inkscape:connector-curvature="0"
       id="path3063"
       style="fill:#6482c3;fill-opacity:1;fill-rule:evenodd;stroke:none"
       d="m 291.967,444.636 c 0.006,0.078 0.013,0.156 0.021,0.234 0.187,-0.024 0.374,-0.048 0.559,-0.071 -0.158,-0.179 -0.356,-0.223 -0.58,-0.163" /><path
       inkscape:connector-curvature="0"
       id="path3065"
       style="fill:#5e7dc2;fill-opacity:1;fill-rule:evenodd;stroke:none"
       d="m 296.544,449.892 c 0.134,-0.174 0.326,-0.232 0.532,-0.262 0.018,-0.075 0.024,-0.15 0.022,-0.227 -0.578,-0.859 -1.706,-0.235 -2.365,-0.878 -0.113,-0.043 -0.231,-0.058 -0.351,-0.051 -0.234,0.047 -0.455,0.133 -0.68,0.213 -0.412,0.207 -0.956,0.203 -1.174,0.727 0.1,1.121 0.886,1.253 1.779,1.231 0.254,-0.022 0.508,-0.044 0.761,-0.066 0.433,-0.356 1.005,-0.411 1.476,-0.687" /><path
       inkscape:connector-curvature="0"
       id="path3067"
       style="fill:#5578ba;fill-opacity:1;fill-rule:evenodd;stroke:none"
       d="m 294.307,450.645 c -0.088,-0.093 -0.197,-0.278 -0.262,-0.263 -0.756,0.163 -1.034,-0.416 -1.395,-0.869 -0.62,-0.443 -1.23,-0.105 -1.845,0.02 -0.251,0.115 -0.476,0.258 -0.58,0.534 -0.053,0.469 0.11,0.82 0.554,1.019 1.108,-0.157 2.243,-0.053 3.335,-0.355 0.076,-10e-4 0.141,-0.029 0.193,-0.086" /><path
       inkscape:connector-curvature="0"
       id="path3069"
       style="fill:#7d91cf;fill-opacity:1;fill-rule:evenodd;stroke:none"
       d="m 294.114,450.731 c -1.14,0.082 -2.291,0.024 -3.42,0.255 -0.88,-1.282 -2.296,-0.925 -3.52,-1.135 -0.257,-0.043 -0.454,0.21 -0.525,0.487 0.221,0.123 0.44,0.248 0.661,0.371 1.023,-0.111 1.982,0.109 2.896,0.564 1.11,-0.094 2.223,-0.185 3.335,-0.284 0.217,-0.019 0.418,-0.094 0.573,-0.258" /><path
       inkscape:connector-curvature="0"
       id="path3071"
       style="fill:#768ace;fill-opacity:1;fill-rule:evenodd;stroke:none"
       d="m 280.614,448.678 c 0.214,-0.013 0.405,0.032 0.54,0.216 0.624,0.084 1.306,-0.12 1.846,0.375 0.213,-0.015 0.41,0.016 0.558,0.191 0.487,0.004 0.926,0.146 1.303,0.46 0.232,-0.007 0.464,-0.015 0.695,-0.021 0.241,0.061 0.481,0.152 0.733,0.046 0.003,-0.92 0.811,-0.534 1.238,-0.759 0.109,-0.026 0.214,-0.064 0.317,-0.108 0.19,-0.091 0.384,-0.181 0.594,-0.222 0.105,-0.013 0.208,-0.033 0.312,-0.055 0.163,-0.029 0.318,-0.078 0.468,-0.148 0.156,-0.077 0.296,-0.177 0.419,-0.302 0.078,-0.103 0.109,-0.216 0.092,-0.344 -0.094,-0.264 -0.289,-0.432 -0.535,-0.553 -0.268,-0.13 -0.548,-0.208 -0.847,-0.219 -2.258,0.36 -4.547,0.304 -6.812,0.534 -0.542,0.054 -1.142,-0.011 -1.528,0.52 0.003,0.074 0.019,0.143 0.045,0.213 0.218,-0.039 0.41,0.002 0.562,0.176" /><path
       inkscape:connector-curvature="0"
       id="path3073"
       style="fill:#728acd;fill-opacity:1;fill-rule:evenodd;stroke:none"
       d="m 287.781,444.487 c -0.436,0.025 -0.872,0.051 -1.308,0.076 l 0.004,-0.003 c -0.396,0.612 -1.077,0.08 -1.548,0.386 l 0.013,-0.003 c -0.237,0.373 -0.779,0.016 -1.015,0.427 0.052,0.539 0.629,0.33 0.862,0.601 -0.646,0.057 -1.16,-0.714 -1.869,-0.315 -0.265,0.034 -0.49,0.147 -0.667,0.349 -0.146,0.166 -0.323,0.277 -0.542,0.321 -0.086,0.086 -0.173,0.171 -0.26,0.258 -0.077,0.228 -0.258,0.305 -0.478,0.326 -0.411,0.727 -1.18,0.591 -1.831,0.705 -0.015,0.498 0.19,0.688 0.632,0.613 0.916,-0.48 1.939,-0.292 2.903,-0.465 0.489,-0.087 1.054,0.078 1.428,-0.413 0.461,-0.411 1.051,-0.599 1.61,-0.76 0.462,-0.131 0.993,0.028 1.499,-0.077 0.215,-0.045 0.403,-0.068 0.57,-0.218 0.24,-0.218 0.235,-0.429 -0.034,-0.587 -0.037,-0.023 -0.08,-0.035 -0.116,-0.055 -0.728,-0.423 -0.731,-0.526 -0.035,-0.987 0.068,-0.046 0.122,-0.118 0.182,-0.179" /><path
       inkscape:connector-curvature="0"
       id="path3075"
       style="fill:#375a91;fill-opacity:1;fill-rule:evenodd;stroke:none"
       d="m 284.105,447.35 c -1.134,0.116 -2.268,0.233 -3.402,0.345 -0.392,0.04 -0.758,0.114 -0.929,0.533 0.069,0.054 0.146,0.074 0.233,0.061 0.337,-0.047 0.673,-0.112 1.01,-0.139 2.599,-0.215 5.198,-0.423 7.796,-0.633 0.285,-0.093 0.454,-0.282 0.484,-0.585 -0.24,-0.268 -0.56,-0.251 -0.841,-0.153 -1.413,0.495 -2.898,0.407 -4.351,0.571" /><path
       inkscape:connector-curvature="0"
       id="path3077"
       style="fill:#7e94d3;fill-opacity:1;fill-rule:evenodd;stroke:none"
       d="m 282.92,445.656 c 0.354,-0.01 0.719,0.071 0.942,0.313 0.269,0.29 0.638,0.158 0.921,0.358 0.255,0.181 0.481,-0.05 0.647,-0.234 0.068,-0.075 0.064,-0.235 0.052,-0.352 -0.003,-0.046 -0.132,-0.129 -0.181,-0.115 -0.396,0.117 -0.742,-0.046 -1.141,-0.176 0.21,-0.282 0.685,-0.124 0.782,-0.507 -0.421,0.052 -0.841,0.106 -1.261,0.159 -0.135,0.347 -0.612,0.226 -0.761,0.554" /><path
       inkscape:connector-curvature="0"
       id="path3079"
       style="fill:#4f76b6;fill-opacity:1;fill-rule:evenodd;stroke:none"
       d="m 296.082,446.589 c -0.199,0.08 -0.425,0.121 -0.594,0.243 -0.519,0.373 -1.1,0.483 -1.717,0.488 0.004,0.084 0.01,0.168 0.018,0.252 0.233,0.261 0.55,0.252 0.859,0.269 0.826,0.176 1.676,-0.459 2.492,0.078 0.12,0.022 0.239,0.017 0.358,-0.009 0.233,-0.091 0.44,-0.212 0.528,-0.469 -0.556,-0.493 -1.227,-0.723 -1.944,-0.852" /><path
       inkscape:connector-curvature="0"
       id="path3081"
       style="fill:#4068a6;fill-opacity:1;fill-rule:evenodd;stroke:none"
       d="m 298.026,447.441 c -0.217,0.066 -0.452,0.101 -0.584,0.323 0.363,0.308 0.706,0.267 1.037,-0.053 -0.028,-0.063 -0.052,-0.128 -0.07,-0.195 -0.129,-0.025 -0.256,-0.05 -0.383,-0.075" /><path
       inkscape:connector-curvature="0"
       id="path3083"
       style="fill:#4668a4;fill-opacity:1;fill-rule:evenodd;stroke:none"
       d="m 294.389,448.569 c 0.477,0.466 1.01,0.78 1.714,0.65 0.354,-0.065 0.676,0.056 0.995,0.184 0.449,-0.328 0.898,-0.64 1.509,-0.509 0.094,0.019 0.219,-0.106 0.329,-0.165 -0.07,0.003 -0.137,-0.013 -0.197,-0.048 -0.411,-0.736 -1.212,-0.487 -1.821,-0.723 -0.128,-0.01 -0.254,-0.001 -0.38,0.022 -0.41,0.121 -0.823,0.07 -1.241,0.058 -0.38,-0.011 -0.894,-0.132 -0.908,0.531" /><path
       inkscape:connector-curvature="0"
       id="path3085"
       style="fill:#7b8ece;fill-opacity:1;fill-rule:evenodd;stroke:none"
       d="m 286.437,449.772 c -0.294,0.042 -0.587,0.084 -0.88,0.127 0.137,0.136 0.275,0.273 0.412,0.41 0.227,0.009 0.454,0.018 0.681,0.029 0.325,-0.222 0.637,-0.384 1.056,-0.169 0.253,0.13 0.58,0.239 0.848,0.196 0.828,-0.134 1.479,0.237 2.14,0.621 -0.123,-0.329 -0.246,-0.658 -0.369,-0.987 -0.241,-0.123 -0.54,-0.092 -0.754,-0.283 -0.911,-0.893 -2.196,-0.868 -3.134,0.056" /><path
       inkscape:connector-curvature="0"
       id="path3087"
       style="fill:#7e94d3;fill-opacity:1;fill-rule:evenodd;stroke:none"
       d="m 284.929,444.946 c 0.202,0.042 0.408,0.073 0.605,0.129 0.622,0.179 0.622,0.182 0.943,-0.515 -0.505,0.057 -1.012,0.114 -1.518,0.172 -0.012,0.071 -0.022,0.143 -0.03,0.214" /><path
       inkscape:connector-curvature="0"
       id="path3089"
       style="fill:#2c4a84;fill-opacity:1;fill-rule:evenodd;stroke:none"
       d="m 296.936,448.098 c 0.114,0.138 0.263,0.198 0.438,0.238 0.458,0.105 0.911,0.23 1.365,0.346 0.264,-0.182 0.317,-0.444 0.282,-0.74 -0.181,-0.077 -0.361,-0.154 -0.542,-0.231 -0.346,0.018 -0.691,0.036 -1.036,0.053 -0.081,0.018 -0.161,0.029 -0.243,0.036 -0.251,-0.044 -0.314,0.076 -0.264,0.298" /><path
       inkscape:connector-curvature="0"
       id="path3091"
       style="fill:#2f508d;fill-opacity:1;fill-rule:evenodd;stroke:none"
       d="m 289.297,446.932 c -0.247,0.123 -0.407,0.32 -0.484,0.585 0.139,0.186 0.336,0.206 0.544,0.198 0.105,0.16 0.614,0.067 0.304,0.486 l 0.003,10e-4 c -0.122,0.18 -0.369,0.146 -0.509,0.297 -0.162,0.024 -0.324,0.048 -0.487,0.07 -0.057,0.477 0.361,0.455 0.623,0.597 0.61,0.152 1.117,-0.175 1.656,-0.352 0.418,-0.269 0.766,-0.615 1.066,-1.008 0.178,-0.348 -0.369,-0.304 -0.318,-0.585 -0.328,-0.291 -0.711,-0.146 -1.077,-0.141 -0.363,0.005 -0.752,0.158 -1.065,-0.166 -0.084,0.007 -0.17,0.012 -0.256,0.018" /><path
       inkscape:connector-curvature="0"
       id="path3093"
       style="fill:#587cbc;fill-opacity:1;fill-rule:evenodd;stroke:none"
       d="m 288.484,444.748 c 0.223,0.216 0.36,0.375 0.524,0.497 0.18,0.132 0.393,0.121 0.602,0.048 0.19,-0.066 0.265,-0.221 0.228,-0.391 -0.022,-0.104 -0.132,-0.246 -0.224,-0.268 -0.331,-0.072 -0.667,-0.061 -1.13,0.114" /><path
       inkscape:connector-curvature="0"
       id="path3095"
       style="fill:#274686;fill-opacity:1;fill-rule:evenodd;stroke:none"
       d="m 294.389,448.569 c 0.278,-0.403 0.658,-0.302 1.039,-0.217 0.462,0.104 0.926,0.2 1.29,-0.237 -0.044,-0.504 -0.411,-0.485 -0.726,-0.375 -0.459,0.16 -0.808,-0.038 -1.177,-0.232 -0.342,0.021 -0.684,0.043 -1.026,0.064 -0.087,0.011 -0.174,0.023 -0.26,0.035 -0.882,0.198 -1.685,0.576 -2.433,1.076 -0.113,0.049 -0.226,0.093 -0.342,0.129 -0.111,0.059 -0.212,0.129 -0.304,0.214 -0.038,0.051 -0.073,0.103 -0.11,0.154 -0.171,0.507 -0.128,0.802 0.505,0.509 0.162,0.017 0.348,0.095 0.48,0.042 0.43,-0.177 0.882,-0.16 1.325,-0.218 0.112,-0.187 0.294,-0.245 0.493,-0.305 0.265,-0.079 0.516,-0.207 0.773,-0.315 0.099,-0.192 0.359,-0.148 0.471,-0.323 l 0.002,-10e-4" /><path
       inkscape:connector-curvature="0"
       id="path3097"
       style="fill:#42639f;fill-opacity:1;fill-rule:evenodd;stroke:none"
       d="m 291.026,448.86 c 0.639,-0.256 1.282,-0.499 1.913,-0.773 0.231,-0.101 0.474,-0.222 0.59,-0.48 -0.132,-0.198 -0.328,-0.225 -0.541,-0.21 -0.11,0.145 -0.266,0.158 -0.429,0.152 -0.225,-0.038 -0.436,-0.032 -0.58,0.184 -0.517,0.071 -0.776,0.436 -0.978,0.865 -0.111,0.1 -0.11,0.187 0.025,0.262" /><path
       inkscape:connector-curvature="0"
       id="path3099"
       style="fill:#254284;fill-opacity:1;fill-rule:evenodd;stroke:none"
       d="m 291.979,447.733 c 0.255,-0.026 0.51,-0.051 0.765,-0.077 0.078,-0.081 0.073,-0.157 -0.016,-0.227 -0.327,-0.158 -0.665,-0.257 -1.034,-0.207 -0.105,0.057 -0.21,0.113 -0.315,0.17 0.098,0.05 0.196,0.094 0.29,0.148 0.106,0.06 0.207,0.127 0.31,0.193" /><path
       inkscape:connector-curvature="0"
       id="path3101"
       style="fill:#274686;fill-opacity:1;fill-rule:evenodd;stroke:none"
       d="m 292.728,447.429 c 0.007,0.075 0.012,0.152 0.016,0.227 0.132,-0.037 0.212,-0.126 0.244,-0.259 -0.087,0.011 -0.174,0.021 -0.26,0.032" /><path
       inkscape:connector-curvature="0"
       id="path3103"
       style="fill:#4668a4;fill-opacity:1;fill-rule:evenodd;stroke:none"
       d="m 294.387,448.57 c -0.213,0.028 -0.392,0.102 -0.471,0.323 0.208,-0.032 0.394,-0.098 0.471,-0.323" /><path
       inkscape:connector-curvature="0"
       id="path3105"
       style="fill:#42639f;fill-opacity:1;fill-rule:evenodd;stroke:none"
       d="m 290.845,449.689 c -0.43,-0.066 -0.43,-0.066 -0.311,-0.514 -0.74,-0.189 -1.021,0.14 -0.965,0.852 0.259,0.148 0.51,0.116 0.757,-0.028 0.208,-0.045 0.412,-0.095 0.519,-0.31" /><path
       inkscape:connector-curvature="0"
       id="path3107"
       style="fill:#476b9e;fill-opacity:1;fill-rule:evenodd;stroke:none"
       d="m 289.569,450.027 c 0.195,-0.429 0.446,-0.792 0.965,-0.852 l 0,0 c 0.072,-0.105 0.158,-0.195 0.257,-0.274 0.08,-0.008 0.157,-0.02 0.235,-0.04 -0.008,-0.087 -0.016,-0.175 -0.025,-0.263 -0.638,-0.062 -1.148,0.42 -1.772,0.416 -0.437,-0.153 -0.888,-0.165 -1.343,-0.142 -0.726,0.01 -1.423,0.129 -2.053,0.528 0.099,0.285 0.48,0.125 0.603,0.372 0.738,-0.445 1.584,-0.333 2.384,-0.444 0.318,-0.044 0.103,0.205 0.138,0.329 0.079,0.277 0.378,0.292 0.611,0.37" /><path
       inkscape:connector-curvature="0"
       id="path3109"
       style="fill:#42639f;fill-opacity:1;fill-rule:evenodd;stroke:none"
       d="m 289.661,448.201 c 0.08,0.023 0.159,0.058 0.24,0.067 0.306,0.036 0.325,-0.199 0.337,-0.399 0.009,-0.145 -0.126,-0.2 -0.256,-0.196 -0.209,0.005 -0.416,0.027 -0.625,0.042 0.102,0.163 0.203,0.324 0.304,0.486" /><path
       inkscape:connector-curvature="0"
       id="path3111"
       style="fill:#42639f;fill-opacity:1;fill-rule:evenodd;stroke:none"
       d="m 287.886,448.872 c 0.409,0.405 0.889,0.14 1.343,0.143 -0.187,-0.149 -0.375,-0.297 -0.561,-0.446 -0.093,0.011 -0.185,0.02 -0.278,0.029 -0.133,0.155 -0.365,0.129 -0.5,0.277 l -0.004,-0.003" /><path
       inkscape:connector-curvature="0"
       id="path3113"
       style="fill:#476b9e;fill-opacity:1;fill-rule:evenodd;stroke:none"
       d="m 287.89,448.875 c 0.211,-0.014 0.399,-0.066 0.5,-0.277 -0.214,0.009 -0.396,0.071 -0.5,0.277" /><path
       inkscape:connector-curvature="0"
       id="path3115"
       style="fill:#42639f;fill-opacity:1;fill-rule:evenodd;stroke:none"
       d="m 289.155,448.499 c 0.225,-0.004 0.415,-0.068 0.509,-0.297 -0.221,0.012 -0.404,0.086 -0.509,0.297" /><path
       inkscape:connector-curvature="0"
       id="path3117"
       style="fill:#4068a6;fill-opacity:1;fill-rule:evenodd;stroke:none"
       d="m 294.815,447.508 c 0.226,0.359 0.551,0.471 0.964,0.425 0.326,-0.035 0.67,-0.103 0.939,0.182 0.073,-0.004 0.147,-0.01 0.218,-0.017 0.089,-0.099 0.177,-0.198 0.265,-0.297 -0.393,-0.463 -0.845,-0.71 -1.405,-0.293 -0.344,0.256 -0.655,-0.107 -0.981,0" /><path
       inkscape:connector-curvature="0"
       id="path3119"
       style="fill:#42639f;fill-opacity:1;fill-rule:evenodd;stroke:none"
       d="m 290.791,448.901 c -0.086,0.091 -0.171,0.182 -0.257,0.274 0.086,-0.092 0.171,-0.183 0.257,-0.274" /><path
       inkscape:connector-curvature="0"
       id="path3121"
       style="fill:#6482c3;fill-opacity:1;fill-rule:evenodd;stroke:none"
       d="m 320.531,445.339 c 0.184,-0.157 0.405,-0.184 0.631,-0.174 0.484,0.024 0.969,0.055 1.451,0.083 0.209,-0.123 0.43,-0.065 0.647,-0.043 1.047,0.44 1.056,0.469 0.453,1.491 0.771,0.356 1.699,0.006 2.406,0.53 0.26,0.193 0.815,0.271 0.313,0.776 -1.442,0.255 -2.834,-0.201 -4.25,-0.29 -0.121,0.017 -0.246,0.017 -0.368,0.009 -0.267,-0.006 -0.519,-0.101 -0.791,-0.109 -1.125,-0.033 -1.31,-0.243 -1.371,-1.457 0.133,-0.289 0.399,-0.297 0.653,-0.279 0.633,0.045 0.248,-0.319 0.226,-0.537" /><path
       inkscape:connector-curvature="0"
       id="path3123"
       style="fill:#4870b4;fill-opacity:1;fill-rule:evenodd;stroke:none"
       d="m 319.822,446.001 c 0.02,0.223 0.002,0.458 0.067,0.667 0.205,0.648 0.361,0.757 1.062,0.635 0.34,-0.059 0.582,0.068 0.844,0.215 -0.354,0.86 -1.143,0.261 -1.68,0.503 -0.318,0.061 -0.638,0.118 -0.959,0.187 -0.101,0.021 -0.205,0.034 -0.308,0.043 -0.205,0.021 -0.41,0.052 -0.619,0.053 -0.108,-0.017 -0.196,-0.07 -0.266,-0.151 -0.049,-0.093 -0.078,-0.193 -0.092,-0.296 -0.017,-0.329 0.108,-0.602 0.318,-0.84 0.407,-0.358 -0.759,-0.737 0.012,-1.089 0.303,-0.077 0.604,-0.154 0.904,-0.231 0.145,-0.072 0.297,-0.073 0.45,-0.042 0.154,0.064 0.246,0.178 0.267,0.346" /><path
       inkscape:connector-curvature="0"
       id="path3125"
       style="fill:#6280c2;fill-opacity:1;fill-rule:evenodd;stroke:none"
       d="m 318.365,447.057 c -0.177,0.272 -0.31,0.559 -0.299,0.895 -0.886,0.476 -1.515,0.076 -2.06,-0.607 0.189,-0.197 0.377,-0.397 0.566,-0.596 0.201,-0.019 0.356,-0.1 0.424,-0.308 0.047,-0.144 0.115,-0.277 0.283,-0.315 0.264,0.425 1.043,0.248 1.086,0.931" /><path
       inkscape:connector-curvature="0"
       id="path3127"
       style="fill:#4e7bb8;fill-opacity:1;fill-rule:evenodd;stroke:none"
       d="m 319.822,446.001 c -0.074,-0.083 -0.146,-0.167 -0.22,-0.251 -0.104,-0.077 -0.104,-0.147 0.015,-0.207 0.285,-0.161 0.588,-0.232 0.914,-0.204 0.471,0.077 0.407,0.518 0.559,0.809 -0.037,0.029 -0.076,0.075 -0.094,0.069 -0.377,-0.151 -0.808,-0.007 -1.174,-0.216" /><path
       inkscape:connector-curvature="0"
       id="path3129"
       style="fill:#5074b6;fill-opacity:1;fill-rule:evenodd;stroke:none"
       d="m 318.365,447.057 c -0.123,-0.235 -0.359,-0.242 -0.578,-0.287 -0.346,-0.072 -0.502,-0.301 -0.508,-0.644 0.287,-0.156 0.59,-0.25 0.922,-0.198 -0.041,0.129 -0.193,0.285 -0.013,0.384 0.197,0.11 0.408,0.169 0.474,0.427 0.07,0.278 -0.092,0.312 -0.297,0.318" /><path
       inkscape:connector-curvature="0"
       id="path3131"
       style="fill:#7e94d3;fill-opacity:1;fill-rule:evenodd;stroke:none"
       d="m 323.322,445.337 c -0.236,-0.03 -0.472,-0.059 -0.709,-0.09 0.186,-0.16 0.405,-0.158 0.631,-0.142 0.406,0.029 0.813,0.05 1.221,0.074 0.01,0.067 0.015,0.133 0.017,0.201 -0.396,0.254 -0.777,0.063 -1.16,-0.043" /><path
       inkscape:connector-curvature="0"
       id="path3133"
       style="fill:#6482c3;fill-opacity:1;fill-rule:evenodd;stroke:none"
       d="m 319.617,445.543 c -0.004,0.068 -0.01,0.138 -0.015,0.207 -0.166,-0.018 -0.331,-0.036 -0.497,-0.053 0.137,-0.162 0.313,-0.204 0.512,-0.154" /><path
       inkscape:connector-curvature="0"
       id="path3135"
       style="fill:#5e7dc2;fill-opacity:1;fill-rule:evenodd;stroke:none"
       d="m 315.656,450.279 c -0.121,-0.151 -0.293,-0.199 -0.476,-0.223 -0.016,-0.065 -0.024,-0.132 -0.022,-0.199 0.496,-0.772 1.506,-0.24 2.078,-0.821 0.1,-0.04 0.203,-0.055 0.309,-0.051 0.209,0.038 0.406,0.11 0.607,0.177 0.369,0.176 0.852,0.162 1.053,0.622 -0.068,0.995 -0.762,1.126 -1.553,1.123 -0.226,-0.015 -0.451,-0.031 -0.675,-0.046 -0.391,-0.307 -0.899,-0.345 -1.321,-0.582" /><path
       inkscape:connector-curvature="0"
       id="path3137"
       style="fill:#5578ba;fill-opacity:1;fill-rule:evenodd;stroke:none"
       d="m 317.652,450.907 c 0.075,-0.084 0.168,-0.25 0.227,-0.238 0.672,0.131 0.908,-0.387 1.219,-0.794 0.543,-0.404 1.088,-0.115 1.634,-0.015 0.227,0.097 0.428,0.22 0.524,0.462 0.057,0.415 -0.082,0.729 -0.471,0.913 -0.984,-0.119 -1.99,-0.007 -2.961,-0.255 -0.068,0 -0.127,-0.024 -0.172,-0.073" /><path
       inkscape:connector-curvature="0"
       id="path3139"
       style="fill:#7d91cf;fill-opacity:1;fill-rule:evenodd;stroke:none"
       d="m 317.824,450.98 c 1.01,0.052 2.03,-0.02 3.033,0.165 0.756,-1.151 2.018,-0.861 3.098,-1.068 0.227,-0.042 0.406,0.178 0.473,0.421 -0.192,0.114 -0.385,0.228 -0.578,0.341 -0.909,-0.08 -1.754,0.131 -2.555,0.551 -0.984,-0.064 -1.973,-0.125 -2.959,-0.192 -0.193,-0.013 -0.373,-0.076 -0.512,-0.218" /><path
       inkscape:connector-curvature="0"
       id="path3141"
       style="fill:#768ace;fill-opacity:1;fill-rule:evenodd;stroke:none"
       d="m 329.746,448.922 c -0.191,-0.008 -0.357,0.035 -0.476,0.2 -0.551,0.086 -1.159,-0.083 -1.627,0.365 -0.19,-0.01 -0.364,0.021 -0.491,0.179 -0.433,0.012 -0.818,0.146 -1.148,0.43 -0.205,-0.002 -0.41,-0.004 -0.615,-0.005 -0.213,0.058 -0.424,0.143 -0.649,0.053 -0.017,-0.814 -0.726,-0.458 -1.109,-0.65 -0.096,-0.021 -0.192,-0.053 -0.283,-0.09 -0.17,-0.077 -0.342,-0.153 -0.53,-0.186 -0.093,-0.01 -0.185,-0.026 -0.277,-0.043 -0.145,-0.023 -0.283,-0.064 -0.418,-0.124 -0.139,-0.065 -0.266,-0.15 -0.377,-0.259 -0.07,-0.09 -0.1,-0.189 -0.088,-0.303 0.08,-0.236 0.25,-0.388 0.465,-0.5 0.234,-0.12 0.482,-0.193 0.746,-0.209 2.008,0.28 4.033,0.188 6.043,0.352 0.483,0.039 1.014,-0.029 1.363,0.434 -0.002,0.066 -0.013,0.128 -0.035,0.19 -0.193,-0.031 -0.363,0.009 -0.494,0.166" /><path
       inkscape:connector-curvature="0"
       id="path3143"
       style="fill:#728acd;fill-opacity:1;fill-rule:evenodd;stroke:none"
       d="m 323.322,445.337 c 0.387,0.014 0.774,0.029 1.16,0.044 0,-10e-4 -0.003,-0.003 -0.003,-0.003 0.361,0.535 0.955,0.052 1.376,0.315 l -0.009,-0.003 c 0.217,0.325 0.691,0 0.906,0.36 -0.037,0.479 -0.553,0.304 -0.752,0.547 0.572,0.04 1.014,-0.652 1.648,-0.311 0.237,0.025 0.438,0.121 0.598,0.296 0.133,0.145 0.291,0.24 0.484,0.276 0.081,0.074 0.159,0.148 0.237,0.223 0.072,0.201 0.234,0.266 0.429,0.28 0.375,0.637 1.055,0.503 1.635,0.593 0.022,0.44 -0.158,0.613 -0.551,0.554 -0.818,-0.409 -1.722,-0.224 -2.578,-0.36 -0.435,-0.069 -0.933,0.087 -1.273,-0.341 -0.416,-0.356 -0.941,-0.512 -1.44,-0.645 -0.412,-0.108 -0.878,0.043 -1.328,-0.042 -0.191,-0.035 -0.359,-0.052 -0.509,-0.182 -0.217,-0.189 -0.215,-0.375 0.019,-0.521 0.033,-0.021 0.07,-0.033 0.102,-0.051 0.636,-0.387 0.638,-0.479 0.013,-0.874 -0.06,-0.04 -0.109,-0.104 -0.164,-0.155" /><path
       inkscape:connector-curvature="0"
       id="path3145"
       style="fill:#375a91;fill-opacity:1;fill-rule:evenodd;stroke:none"
       d="m 326.629,447.807 c 1.008,0.082 2.014,0.166 3.019,0.245 0.348,0.029 0.674,0.087 0.832,0.456 -0.058,0.049 -0.126,0.068 -0.205,0.058 -0.298,-0.036 -0.597,-0.087 -0.896,-0.105 -2.307,-0.145 -4.611,-0.283 -6.916,-0.422 -0.256,-0.077 -0.408,-0.242 -0.442,-0.511 0.209,-0.241 0.493,-0.231 0.745,-0.149 1.259,0.413 2.574,0.308 3.863,0.428" /><path
       inkscape:connector-curvature="0"
       id="path3147"
       style="fill:#7e94d3;fill-opacity:1;fill-rule:evenodd;stroke:none"
       d="m 327.648,446.286 c -0.314,-0.004 -0.634,0.075 -0.83,0.294 -0.23,0.261 -0.56,0.15 -0.806,0.333 -0.225,0.165 -0.428,-0.036 -0.578,-0.196 -0.063,-0.065 -0.063,-0.207 -0.053,-0.311 0.002,-0.04 0.115,-0.116 0.158,-0.105 0.354,0.097 0.656,-0.054 1.008,-0.176 -0.192,-0.246 -0.609,-0.097 -0.701,-0.435 0.373,0.039 0.746,0.079 1.119,0.118 0.127,0.305 0.547,0.19 0.683,0.478" /><path
       inkscape:connector-curvature="0"
       id="path3149"
       style="fill:#4f76b6;fill-opacity:1;fill-rule:evenodd;stroke:none"
       d="m 316.006,447.345 c 0.18,0.068 0.379,0.1 0.531,0.205 0.467,0.321 0.984,0.408 1.529,0.402 -0.002,0.075 -0.005,0.149 -0.009,0.223 -0.203,0.236 -0.485,0.233 -0.758,0.253 -0.729,0.171 -1.492,-0.376 -2.205,0.114 -0.108,0.022 -0.211,0.02 -0.317,-10e-4 -0.209,-0.077 -0.394,-0.18 -0.478,-0.406 0.484,-0.447 1.076,-0.662 1.707,-0.79" /><path
       inkscape:connector-curvature="0"
       id="path3151"
       style="fill:#4068a6;fill-opacity:1;fill-rule:evenodd;stroke:none"
       d="m 314.299,448.135 c 0.195,0.054 0.402,0.081 0.523,0.276 -0.314,0.279 -0.621,0.248 -0.918,-0.029 0.022,-0.057 0.043,-0.115 0.059,-0.174 0.113,-0.024 0.225,-0.049 0.336,-0.073" /><path
       inkscape:connector-curvature="0"
       id="path3153"
       style="fill:#4668a4;fill-opacity:1;fill-rule:evenodd;stroke:none"
       d="m 317.541,449.069 c -0.414,0.421 -0.881,0.709 -1.506,0.607 -0.314,-0.052 -0.597,0.061 -0.877,0.181 -0.404,-0.284 -0.808,-0.551 -1.347,-0.425 -0.082,0.019 -0.196,-0.09 -0.293,-0.14 0.062,0.001 0.119,-0.014 0.173,-0.046 0.35,-0.659 1.063,-0.453 1.6,-0.673 0.113,-0.011 0.225,-0.005 0.336,0.013 0.365,0.099 0.73,0.047 1.102,0.029 0.335,-0.017 0.789,-0.133 0.812,0.454" /><path
       inkscape:connector-curvature="0"
       id="path3155"
       style="fill:#7b8ece;fill-opacity:1;fill-rule:evenodd;stroke:none"
       d="m 324.607,449.994 c 0.26,0.032 0.522,0.064 0.782,0.096 -0.119,0.124 -0.239,0.247 -0.36,0.371 -0.199,0.012 -0.4,0.025 -0.601,0.037 -0.291,-0.19 -0.571,-0.328 -0.938,-0.13 -0.222,0.12 -0.51,0.222 -0.748,0.188 -0.736,-0.103 -1.306,0.237 -1.885,0.589 0.102,-0.294 0.206,-0.587 0.309,-0.881 0.211,-0.114 0.477,-0.09 0.664,-0.264 0.791,-0.807 1.928,-0.808 2.777,-0.006" /><path
       inkscape:connector-curvature="0"
       id="path3157"
       style="fill:#7e94d3;fill-opacity:1;fill-rule:evenodd;stroke:none"
       d="m 325.855,445.693 c -0.175,0.041 -0.359,0.071 -0.533,0.125 -0.547,0.168 -0.547,0.171 -0.843,-0.44 0.449,0.042 0.898,0.084 1.347,0.125 0.012,0.063 0.022,0.127 0.029,0.19" /><path
       inkscape:connector-curvature="0"
       id="path3159"
       style="fill:#2c4a84;fill-opacity:1;fill-rule:evenodd;stroke:none"
       d="m 315.277,448.697 c -0.099,0.125 -0.23,0.181 -0.382,0.219 -0.405,0.101 -0.805,0.219 -1.204,0.33 -0.238,-0.156 -0.289,-0.387 -0.263,-0.651 0.158,-0.07 0.316,-0.141 0.476,-0.213 0.307,0.01 0.612,0.02 0.918,0.029 0.073,0.013 0.143,0.023 0.215,0.027 0.223,-0.044 0.281,0.062 0.24,0.259" /><path
       inkscape:connector-curvature="0"
       id="path3161"
       style="fill:#2f508d;fill-opacity:1;fill-rule:evenodd;stroke:none"
       d="m 322.021,447.528 c 0.223,0.105 0.368,0.277 0.44,0.51 -0.117,0.167 -0.293,0.189 -0.477,0.185 -0.091,0.143 -0.543,0.071 -0.261,0.436 l -0.002,0.001 c 0.111,0.158 0.33,0.123 0.457,0.254 0.142,0.018 0.287,0.037 0.431,0.054 0.059,0.421 -0.312,0.409 -0.541,0.539 -0.539,0.146 -0.992,-0.134 -1.472,-0.281 -0.377,-0.232 -0.69,-0.531 -0.963,-0.875 -0.164,-0.305 0.32,-0.275 0.271,-0.523 0.285,-0.264 0.627,-0.143 0.951,-0.144 0.323,-0.002 0.67,0.127 0.94,-0.166 0.076,0.004 0.152,0.008 0.226,0.01" /><path
       inkscape:connector-curvature="0"
       id="path3163"
       style="fill:#587cbc;fill-opacity:1;fill-rule:evenodd;stroke:none"
       d="m 322.705,445.579 c -0.195,0.196 -0.312,0.339 -0.457,0.45 -0.156,0.121 -0.346,0.114 -0.531,0.054 -0.17,-0.055 -0.238,-0.191 -0.209,-0.342 0.017,-0.093 0.111,-0.221 0.193,-0.242 0.291,-0.07 0.59,-0.065 1.004,0.08" /><path
       inkscape:connector-curvature="0"
       id="path3165"
       style="fill:#274686;fill-opacity:1;fill-rule:evenodd;stroke:none"
       d="m 317.541,449.069 c -0.252,-0.352 -0.588,-0.255 -0.924,-0.173 -0.406,0.1 -0.816,0.194 -1.146,-0.187 0.029,-0.448 0.355,-0.437 0.636,-0.346 0.411,0.134 0.715,-0.048 1.038,-0.226 0.304,0.013 0.607,0.026 0.912,0.038 0.076,0.009 0.152,0.018 0.23,0.026 0.785,0.161 1.502,0.481 2.174,0.91 0.1,0.042 0.201,0.079 0.305,0.109 0.099,0.05 0.191,0.11 0.273,0.184 0.035,0.045 0.066,0.09 0.1,0.135 0.16,0.446 0.127,0.708 -0.438,0.46 -0.144,0.017 -0.306,0.091 -0.424,0.045 -0.384,-0.149 -0.785,-0.125 -1.179,-0.169 -0.102,-0.163 -0.264,-0.212 -0.442,-0.262 -0.236,-0.065 -0.461,-0.174 -0.689,-0.265 -0.092,-0.168 -0.322,-0.125 -0.424,-0.278 l -0.002,-10e-4" /><path
       inkscape:connector-curvature="0"
       id="path3167"
       style="fill:#42639f;fill-opacity:1;fill-rule:evenodd;stroke:none"
       d="m 320.525,449.268 c -0.57,-0.216 -1.144,-0.42 -1.709,-0.652 -0.205,-0.085 -0.423,-0.188 -0.529,-0.415 0.111,-0.177 0.287,-0.205 0.475,-0.194 0.101,0.125 0.238,0.134 0.383,0.126 0.199,-0.037 0.384,-0.035 0.515,0.153 0.461,0.054 0.697,0.373 0.883,0.749 0.102,0.086 0.102,0.163 -0.018,0.233" /><path
       inkscape:connector-curvature="0"
       id="path3169"
       style="fill:#254284;fill-opacity:1;fill-rule:evenodd;stroke:none"
       d="m 319.66,448.286 c -0.224,-0.019 -0.451,-0.036 -0.678,-0.054 -0.07,-0.071 -0.066,-0.138 0.01,-0.202 0.287,-0.146 0.584,-0.239 0.912,-0.201 0.094,0.048 0.19,0.096 0.284,0.144 -0.086,0.046 -0.172,0.087 -0.256,0.136 -0.092,0.056 -0.18,0.117 -0.272,0.177" /><path
       inkscape:connector-curvature="0"
       id="path3171"
       style="fill:#274686;fill-opacity:1;fill-rule:evenodd;stroke:none"
       d="m 318.992,448.03 c -0.004,0.067 -0.008,0.135 -0.01,0.202 -0.117,-0.031 -0.189,-0.108 -0.22,-0.225 0.078,0.007 0.154,0.015 0.23,0.023" /><path
       inkscape:connector-curvature="0"
       id="path3173"
       style="fill:#4668a4;fill-opacity:1;fill-rule:evenodd;stroke:none"
       d="m 317.543,449.07 c 0.189,0.021 0.35,0.083 0.424,0.278 -0.186,-0.025 -0.352,-0.08 -0.424,-0.278" /><path
       inkscape:connector-curvature="0"
       id="path3175"
       style="fill:#42639f;fill-opacity:1;fill-rule:evenodd;stroke:none"
       d="m 320.701,449.999 c 0.379,-0.067 0.379,-0.067 0.266,-0.461 0.652,-0.181 0.906,0.106 0.869,0.737 -0.227,0.136 -0.449,0.112 -0.67,-0.011 -0.186,-0.036 -0.367,-0.077 -0.465,-0.265" /><path
       inkscape:connector-curvature="0"
       id="path3177"
       style="fill:#476b9e;fill-opacity:1;fill-rule:evenodd;stroke:none"
       d="m 321.836,450.275 c -0.18,-0.376 -0.408,-0.693 -0.869,-0.737 l 0,0 c -0.067,-0.093 -0.145,-0.17 -0.233,-0.239 -0.07,-0.005 -0.138,-0.015 -0.207,-0.031 0.004,-0.077 0.01,-0.155 0.016,-0.233 0.564,-0.066 1.025,0.351 1.576,0.337 0.385,-0.143 0.785,-0.162 1.188,-0.15 0.644,-0.004 1.263,0.09 1.828,0.431 -0.082,0.254 -0.422,0.12 -0.528,0.341 -0.662,-0.381 -1.408,-0.267 -2.119,-0.351 -0.283,-0.033 -0.088,0.183 -0.117,0.294 -0.064,0.247 -0.33,0.265 -0.535,0.338" /><path
       inkscape:connector-curvature="0"
       id="path3179"
       style="fill:#42639f;fill-opacity:1;fill-rule:evenodd;stroke:none"
       d="m 321.723,448.659 c -0.071,0.022 -0.139,0.055 -0.211,0.064 -0.272,0.037 -0.291,-0.171 -0.307,-0.347 -0.01,-0.128 0.108,-0.18 0.225,-0.179 0.183,10e-4 0.369,0.017 0.554,0.026 -0.088,0.146 -0.175,0.291 -0.261,0.436" /><path
       inkscape:connector-curvature="0"
       id="path3181"
       style="fill:#42639f;fill-opacity:1;fill-rule:evenodd;stroke:none"
       d="m 323.307,449.222 c -0.356,0.366 -0.786,0.14 -1.186,0.151 0.162,-0.135 0.324,-0.27 0.488,-0.405 0.082,0.007 0.164,0.014 0.246,0.021 0.122,0.134 0.327,0.107 0.448,0.236 l 0.004,-0.003" /><path
       inkscape:connector-curvature="0"
       id="path3183"
       style="fill:#476b9e;fill-opacity:1;fill-rule:evenodd;stroke:none"
       d="m 323.303,449.225 c -0.186,-0.008 -0.354,-0.051 -0.448,-0.237 0.19,0.005 0.352,0.057 0.448,0.237" /><path
       inkscape:connector-curvature="0"
       id="path3185"
       style="fill:#42639f;fill-opacity:1;fill-rule:evenodd;stroke:none"
       d="m 322.178,448.914 c -0.201,0.001 -0.371,-0.052 -0.457,-0.254 0.195,0.007 0.359,0.07 0.457,0.254" /><path
       inkscape:connector-curvature="0"
       id="path3187"
       style="fill:#4068a6;fill-opacity:1;fill-rule:evenodd;stroke:none"
       d="m 317.145,448.137 c -0.194,0.322 -0.479,0.427 -0.846,0.394 -0.289,-0.026 -0.594,-0.08 -0.828,0.178 -0.065,-0.003 -0.131,-0.007 -0.194,-0.012 -0.08,-0.086 -0.16,-0.172 -0.24,-0.258 0.34,-0.417 0.736,-0.644 1.24,-0.284 0.309,0.22 0.578,-0.107 0.868,-0.018" /><path
       inkscape:connector-curvature="0"
       id="path3189"
       style="fill:#42639f;fill-opacity:1;fill-rule:evenodd;stroke:none"
       d="m 320.734,449.299 c 0.079,0.08 0.155,0.159 0.233,0.239 -0.078,-0.08 -0.154,-0.159 -0.233,-0.239" /><path
       inkscape:connector-curvature="0"
       id="path3191"
       style="fill:#abb9df;fill-opacity:1;fill-rule:evenodd;stroke:none"
       d="m 315.768,457.659 c 0.269,0.032 0.537,0.066 0.804,0.098 0.086,0.103 0.176,0.205 0.276,0.294 l -0.01,-0.012 c 0.195,0.302 0.621,0.095 0.828,0.374 l -0.008,-0.005 c 0.539,0.361 1.182,0.17 1.756,0.322 0.691,-0.967 -0.31,-1.101 -0.742,-1.516 -0.152,-0.129 -0.276,-0.29 -0.408,-0.437 -0.596,-0.492 -1.106,-1.124 -1.946,-1.226 -0.697,0.181 -1.589,-0.119 -1.994,0.795 0.1,0.282 0.469,0.169 0.6,0.405 l 0.01,0.01 c 0.175,0.152 0.087,0.422 0.257,0.577 l -0.013,-0.013 c 0.146,0.2 0.418,0.18 0.59,0.334" /><path
       inkscape:connector-curvature="0"
       id="path3193"
       style="fill:#4e6283;fill-opacity:1;fill-rule:evenodd;stroke:none"
       d="m 316.189,455.686 c 0.719,0.31 1.274,0.858 1.881,1.329 0.1,0.102 0.221,0.153 0.364,0.154 0.421,-0.052 0.961,-0.129 0.921,-0.629 -0.054,-0.643 -0.451,-1.207 -1.001,-1.583 -0.305,-0.205 -0.688,-0.266 -1.065,-0.15 -0.154,0.063 -0.209,0.194 -0.221,0.353 -0.154,-0.069 -0.089,-0.222 -0.132,-0.34 -0.266,-0.625 -0.817,-0.932 -1.37,-1.234 -0.132,-0.029 -0.259,-0.015 -0.38,0.044 -0.27,0.229 -0.379,0.535 -0.416,0.874 0.175,0.751 0.787,0.979 1.419,1.182" /><path
       inkscape:connector-curvature="0"
       id="path3195"
       style="fill:#a8b6dc;fill-opacity:1;fill-rule:evenodd;stroke:none"
       d="m 316.189,455.686 c -0.449,-0.407 -0.9,-0.813 -1.349,-1.218 -0.004,-0.063 -0.006,-0.123 -0.01,-0.186 -0.043,-0.119 -0.109,-0.224 -0.193,-0.316 -0.199,-0.175 -0.416,-0.278 -0.688,-0.193 -0.498,0.341 -1.082,0.612 -1.14,1.329 0,0.09 0.002,0.177 0.007,0.265 0.088,0.02 0.178,0.038 0.268,0.053 0.619,0.02 0.631,0.692 1.025,0.953 0.096,0.014 0.192,0.027 0.287,0.04 0.116,-0.211 0.249,-0.402 0.524,-0.39 0.459,0.017 0.853,-0.2 1.269,-0.337" /><path
       inkscape:connector-curvature="0"
       id="path3197"
       style="fill:#9aa5bb;fill-opacity:1;fill-rule:evenodd;stroke:none"
       d="m 319.637,458.629 c 0.093,0.17 0.187,0.344 0.281,0.517 0.266,0.07 0.537,0.114 0.787,0.217 0.258,0.107 0.524,0.285 0.744,0.023 0.203,-0.239 0.059,-0.52 -0.06,-0.772 -0.02,-0.041 -0.032,-0.086 -0.045,-0.13 l 0.008,-0.008 c -0.151,-0.275 0.132,-0.651 -0.206,-0.885 l 0.014,0.007 c -0.076,-0.122 -0.174,-0.221 -0.283,-0.311 l -0.016,0.028 c -0.166,-0.037 -0.33,-0.076 -0.492,-0.114 -0.637,0.138 -1.281,-0.455 -1.914,0.017 -0.049,0.042 -0.098,0.084 -0.146,0.126 0.144,0.103 0.277,0.244 0.437,0.302 0.473,0.178 0.756,0.507 0.891,0.983" /><path
       inkscape:connector-curvature="0"
       id="path3199"
       style="fill:#9aa5bb;fill-opacity:1;fill-rule:evenodd;stroke:none"
       d="m 318.361,457.026 c -0.097,-0.005 -0.195,-0.007 -0.291,-0.011 0.08,0.11 0.159,0.219 0.239,0.329 l 0.06,-0.049 c 0.07,-0.093 0.065,-0.183 -0.008,-0.269" /><path
       inkscape:connector-curvature="0"
       id="path3201"
       style="fill:#c4cce2;fill-opacity:1;fill-rule:evenodd;stroke:none"
       d="m 312.73,449.369 c 0.004,-0.085 0.002,-0.17 -0.003,-0.256 -0.002,0 -0.133,-0.009 -0.133,-0.009 l -0.129,-0.029 c -0.145,-0.183 -0.415,-0.145 -0.564,-0.323 l -0.121,-0.003 -0.122,-0.018 c -0.113,0.08 -0.22,0.069 -0.317,-0.033 l -0.137,-0.01 -0.136,-0.025 c -0.312,-0.255 -0.543,-0.155 -0.722,0.167 -0.063,0.448 0.191,0.714 0.53,0.935 0.271,0.154 0.555,0.282 0.857,0.367 0.537,0.014 1.205,0.197 0.997,-0.763" /><path
       inkscape:connector-curvature="0"
       id="path3203"
       style="fill:#677791;fill-opacity:1;fill-rule:evenodd;stroke:none"
       d="m 317.396,451.268 c -0.167,-0.123 -0.335,-0.245 -0.501,-0.368 -1.104,0.257 -0.313,1.191 -0.625,1.73 0,0.39 -0.196,0.648 -0.541,0.806 -0.104,0.067 -0.18,0.156 -0.229,0.267 0.438,0.399 0.875,0.798 1.313,1.196 l 0.119,-0.004 c 0,0.001 0.037,-0.111 0.037,-0.111 l 0.027,0.114 c 0,10e-4 0.115,0.029 0.115,0.029 0.274,0.066 0.545,0.152 0.823,0.193 0.371,0.054 0.556,0.22 0.627,0.61 0.035,0.198 0.285,0.356 0.431,0.541 0.223,0.286 0.196,0.33 -0.275,0.54 -0.127,0.056 -0.238,0.142 -0.358,0.214 -0.004,0.09 0,0.18 0.01,0.271 0.229,0.001 0.479,0.065 0.682,-0.006 0.523,-0.181 0.771,0.086 0.984,0.491 0.037,0.072 0.135,0.112 0.209,0.168 0.283,-0.21 -0.017,-0.515 0.125,-0.748 l -0.006,0.002 c -0.099,-0.085 -0.201,-0.168 -0.3,-0.253 -0.053,-0.047 -0.114,-0.085 -0.182,-0.109 -0.27,-0.084 -0.156,-0.396 -0.32,-0.542 0.068,-1.167 -0.582,-2.094 -1.1,-3.036 -0.365,-0.661 -0.705,-1.332 -1.065,-1.995" /><path
       inkscape:connector-curvature="0"
       id="path3205"
       style="fill:#9aa5bb;fill-opacity:1;fill-rule:evenodd;stroke:none"
       d="m 319.561,456.299 c -0.022,0.255 0.027,0.472 0.32,0.542 -0.026,-0.229 -0.088,-0.436 -0.32,-0.542" /><path
       inkscape:connector-curvature="0"
       id="path3207"
       style="fill:#9aa5bb;fill-opacity:1;fill-rule:evenodd;stroke:none"
       d="m 320.063,456.95 c 0.044,0.153 0.136,0.245 0.3,0.253 -0.035,-0.16 -0.138,-0.241 -0.3,-0.253" /><path
       inkscape:connector-curvature="0"
       id="path3209"
       style="fill:#8394a8;fill-opacity:1;fill-rule:evenodd;stroke:none"
       d="m 310.476,448.935 c -0.217,-0.06 -0.431,-0.125 -0.573,-0.317 -0.497,0.221 -0.303,0.633 -0.274,0.998 0.073,0.026 0.149,0.051 0.224,0.078 0.06,0.008 0.12,0.016 0.179,0.025 0.285,0.109 0.558,0.298 0.885,0.133 0.072,-0.059 0.106,-0.129 0.105,-0.206 -10e-4,-0.08 -0.009,-0.121 -0.027,-0.122 -0.246,-0.133 -0.456,-0.297 -0.519,-0.589" /><path
       inkscape:connector-curvature="0"
       id="path3211"
       style="fill:#79879b;fill-opacity:1;fill-rule:evenodd;stroke:none"
       d="m 316.436,452.845 c 0.226,-0.345 0.429,-0.689 0.23,-1.131 -0.143,-0.318 -0.119,-0.62 0.229,-0.814 0,-0.091 0.003,-0.182 0.007,-0.274 -0.093,-0.095 -0.187,-0.189 -0.281,-0.284 -0.308,-0.04 -0.629,-0.053 -0.822,-0.359 -0.379,-0.099 -0.805,-0.063 -1.09,-0.411 -0.188,-0.008 -0.375,-0.015 -0.564,-0.024 -0.254,0.218 -0.721,-0.134 -0.866,0.264 -0.119,0.326 0.266,0.445 0.432,0.647 -0.137,0.677 -0.934,0.478 -1.225,0.935 -0.009,0.54 0.369,0.669 0.793,0.748 0.541,-0.074 1.041,-0.357 1.629,-0.337 -0.256,0.281 -0.693,0.315 -0.82,0.705 -0.022,0.305 0.166,0.459 0.412,0.572 0.244,0.056 0.469,-0.026 0.695,-0.096 0.155,-0.043 0.315,-0.068 0.479,-0.052 0.262,0.032 0.535,0.161 0.762,-0.089" /><path
       inkscape:connector-curvature="0"
       id="path3213"
       style="fill:#a3acca;fill-opacity:1;fill-rule:evenodd;stroke:none"
       d="m 314.086,450.361 c -0.113,-0.275 -0.438,-0.272 -0.631,-0.46 0.242,-0.123 0.467,-0.238 0.69,-0.353 -0.471,-0.06 -0.944,-0.119 -1.416,-0.179 -0.061,0.364 -0.258,0.561 -0.641,0.527 -0.179,-0.016 -0.358,-0.036 -0.535,-0.055 -0.036,0.055 -0.073,0.109 -0.109,0.162 -0.02,0.347 0.053,0.651 0.388,0.834 0.131,0.019 0.262,0.013 0.392,-0.014 0.583,-0.301 1.319,0.008 1.862,-0.462" /><path
       inkscape:connector-curvature="0"
       id="path3215"
       style="fill:#abb9df;fill-opacity:1;fill-rule:evenodd;stroke:none"
       d="m 314.109,456.373 c -0.064,-0.174 -0.136,-0.345 -0.191,-0.523 -0.184,-0.587 -0.182,-0.587 -0.834,-0.429 -0.008,0.084 -0.01,0.169 -0.006,0.254 0.307,0.094 0.477,0.299 0.524,0.612 0.168,0.029 0.337,0.056 0.507,0.086" /><path
       inkscape:connector-curvature="0"
       id="path3217"
       style="fill:#a8b5dc;fill-opacity:1;fill-rule:evenodd;stroke:none"
       d="m 310.24,452.003 c 0.08,0.108 0.159,0.215 0.24,0.321 0.314,0.221 0.483,0.517 0.491,0.904 0.223,0.045 0.413,0.138 0.522,0.353 0.174,0.291 0.348,0.581 0.523,0.872 0.088,0.014 0.178,0.031 0.266,0.05 0.642,-0.031 0.691,-0.84 1.265,-0.962 0.07,-0.116 0.099,-0.242 0.09,-0.376 -0.907,-1.309 -2.156,-2.254 -3.403,-3.202 -0.051,0.041 -0.104,0.083 -0.156,0.122 -0.009,0.165 -0.018,0.33 -0.026,0.495 0.363,0.434 0.093,0.954 0.188,1.423" /><path
       inkscape:connector-curvature="0"
       id="path3219"
       style="fill:#8394a8;fill-opacity:1;fill-rule:evenodd;stroke:none"
       d="m 309.853,449.694 c -0.002,0.089 -0.005,0.177 -0.006,0.266 0.088,0.022 0.165,0.063 0.231,0.125 -0.002,-0.062 0.002,-0.123 0.009,-0.186 0.007,-0.125 -0.047,-0.209 -0.169,-0.245 l -0.065,0.04" /><path
       inkscape:connector-curvature="0"
       id="path3221"
       style="fill:#b4c4e9;fill-opacity:1;fill-rule:evenodd;stroke:none"
       d="m 313.521,453.463 c -0.177,0.026 -0.359,0.038 -0.531,0.081 -0.336,0.086 -0.556,0.254 -0.482,0.663 0.013,0.083 -0.147,0.197 -0.226,0.296 -0.006,0.088 -0.006,0.178 -0.003,0.266 0.088,0.098 0.176,0.196 0.262,0.295 0.09,0.02 0.178,0.033 0.266,0.038 0.484,-0.372 0.906,-0.804 1.257,-1.305 0,0 -0.031,-0.137 -0.029,-0.137 -0.037,-0.088 -0.094,-0.161 -0.166,-0.224 0.002,-10e-4 -0.121,-0.069 -0.121,-0.071 -0.109,-0.048 -0.185,-0.015 -0.227,0.098" /><path
       inkscape:connector-curvature="0"
       id="path3223"
       style="fill:#385078;fill-opacity:1;fill-rule:evenodd;stroke:none"
       d="m 314.691,453.005 c -0.177,-0.117 -0.359,-0.233 -0.537,-0.351 -0.105,-0.09 -0.218,-0.105 -0.341,-0.044 -0.137,0.152 -0.184,0.328 -0.143,0.528 0.002,0.133 0.053,0.243 0.16,0.323 l 0.002,0.003 c 0.035,0.144 0.139,0.232 0.254,0.312 l -0.022,0.021 c 0.159,0.121 0.317,0.241 0.475,0.362 0.131,0.072 0.246,0.161 0.305,0.305 l -0.006,0.003 c 0.357,-0.185 0.342,-0.535 0.391,-0.859 -0.008,-0.048 -0.014,-0.095 -0.02,-0.143 -0.037,-0.09 -0.09,-0.17 -0.15,-0.246 -0.1,-0.109 -0.215,-0.192 -0.368,-0.214" /><path
       inkscape:connector-curvature="0"
       id="path3225"
       style="fill:#384d78;fill-opacity:1;fill-rule:evenodd;stroke:none"
       d="m 316.813,454.899 c 0.001,0.24 0.041,0.472 0.275,0.594 0.111,0.057 0.301,0.128 0.361,0.08 0.125,-0.101 0.01,-0.224 -0.084,-0.324 -0.092,-0.1 -0.17,-0.214 -0.254,-0.322 l -0.002,-0.001 c -0.089,-0.079 -0.189,-0.086 -0.293,-0.028 l -0.003,10e-4" /><path
       inkscape:connector-curvature="0"
       id="path3227"
       style="fill:#999cc4;fill-opacity:1;fill-rule:evenodd;stroke:none"
       d="m 315.229,453.608 c 0.091,0.032 0.181,0.064 0.271,0.095 l -0.012,-0.125 c 0.032,-0.123 -0.002,-0.221 -0.109,-0.291 -0.059,0.007 -0.117,0.015 -0.176,0.022 -0.074,0.109 -0.064,0.21 0.027,0.304 l -0.001,-0.005" /><path
       inkscape:connector-curvature="0"
       id="path3229"
       style="fill:#4e6283;fill-opacity:1;fill-rule:evenodd;stroke:none"
       d="m 314.844,454.464 c -0.041,-0.161 -0.143,-0.263 -0.305,-0.305 0.051,0.153 0.141,0.267 0.305,0.305" /><path
       inkscape:connector-curvature="0"
       id="path3231"
       style="fill:#a3acca;fill-opacity:1;fill-rule:evenodd;stroke:none"
       d="m 310.995,449.524 c -0.01,0.095 -0.018,0.19 -0.026,0.285 0.035,0.041 0.07,0.082 0.105,0.123 0.159,0.072 0.31,0.082 0.445,-0.052 l 0.034,-0.039 c -0.115,-0.229 -0.322,-0.302 -0.558,-0.317" /><path
       inkscape:connector-curvature="0"
       id="path3233"
       style="fill:#acb8dc;fill-opacity:1;fill-rule:evenodd;stroke:none"
       d="m 315.285,453.308 c 0.069,0.09 0.137,0.18 0.203,0.27 0.256,0.108 0.52,0.16 0.772,0.014 0.31,-0.179 0.472,-0.414 0.176,-0.747 -0.268,-0.103 -0.538,-0.205 -0.805,-0.308 -0.094,0.054 -0.16,0.136 -0.199,0.236 -0.094,0.166 -0.356,0.286 -0.147,0.535" /><path
       inkscape:connector-curvature="0"
       id="path3235"
       style="fill:#4e6283;fill-opacity:1;fill-rule:evenodd;stroke:none"
       d="m 316.816,454.898 c 0.098,0.01 0.198,0.019 0.293,0.027 -0.08,-0.201 -0.175,-0.211 -0.293,-0.027" /><path
       inkscape:connector-curvature="0"
       id="path3237"
       style="fill:#657c99;fill-opacity:1;fill-rule:evenodd;stroke:none"
       d="m 313.824,453.207 c 0.016,-0.188 0.031,-0.376 0.047,-0.565 0.127,-0.455 -0.051,-0.656 -0.514,-0.62 -0.287,-0.198 -0.658,-0.3 -0.781,-0.685 0.08,-0.09 0.094,-0.189 0.045,-0.297 -0.109,-0.131 -0.25,-0.217 -0.413,-0.264 -0.054,-0.01 -0.108,-0.019 -0.163,-0.028 -0.089,-0.008 -0.176,-0.022 -0.262,-0.043 -0.254,-0.316 -0.469,-0.664 -0.814,-0.896 l 0,0 c -0.34,-0.004 -0.538,-0.263 -0.797,-0.418 -0.243,-0.144 -0.26,0.085 -0.255,0.264 0.058,0.081 0.114,0.164 0.17,0.246 0.658,0.858 1.392,1.639 2.274,2.281 0.416,0.302 0.78,0.673 1.166,1.012 0.094,0.111 0.192,0.12 0.297,0.013" /><path
       inkscape:connector-curvature="0"
       id="path3239"
       style="fill:#8a97b8;fill-opacity:1;fill-rule:evenodd;stroke:none"
       d="m 313.357,452.022 c 0.247,0.143 0.438,0.336 0.514,0.62 0.094,0.021 0.188,0.025 0.283,0.012 0.434,-0.454 1.112,-0.435 1.582,-0.813 0.055,-0.043 0.08,-0.168 0.061,-0.24 -0.018,-0.074 -0.104,-0.184 -0.166,-0.187 -0.733,-0.035 -1.461,-0.022 -2.113,0.385 -0.071,0.045 -0.11,0.148 -0.161,0.223" /><path
       inkscape:connector-curvature="0"
       id="path3241"
       style="fill:#adbbe0;fill-opacity:1;fill-rule:evenodd;stroke:none"
       d="m 312.563,451.122 c 0.001,0.073 0.007,0.144 0.013,0.216 0.766,0.2 1.303,-0.273 1.826,-0.687 0.143,-0.112 -0.152,-0.246 -0.316,-0.29 -0.373,-0.029 -0.742,-0.057 -1.113,-0.09 -0.41,-0.037 -0.723,0.116 -0.928,0.477 l 0,0.006 c 0.128,0.187 0.408,0.156 0.518,0.368" /><path
       inkscape:connector-curvature="0"
       id="path3243"
       style="fill:#999cc4;fill-opacity:1;fill-rule:evenodd;stroke:none"
       d="m 315.285,453.308 c 0.094,-0.175 0.188,-0.348 0.281,-0.522 -0.086,-0.1 -0.177,-0.116 -0.285,-0.034 -0.236,-0.006 -0.451,0.035 -0.59,0.253 0.086,0.111 0.174,0.219 0.26,0.329 0.082,0.085 0.17,0.093 0.264,0.024 l 0.07,-0.05" /><path
       inkscape:connector-curvature="0"
       id="path3245"
       style="fill:#8a97b8;fill-opacity:1;fill-rule:evenodd;stroke:none"
       d="m 315.281,452.752 c 0.096,0.012 0.19,0.023 0.285,0.034 0.022,-0.084 0.043,-0.167 0.065,-0.249 -0.117,0.071 -0.233,0.143 -0.35,0.215" /><path
       inkscape:connector-curvature="0"
       id="path3247"
       style="fill:#8394a8;fill-opacity:1;fill-rule:evenodd;stroke:none"
       d="m 310.969,449.809 c 0.162,0.398 0.402,0.726 0.814,0.897 -0.088,-0.277 -0.176,-0.552 -0.264,-0.826 -0.184,-0.024 -0.367,-0.047 -0.55,-0.071" /><path
       inkscape:connector-curvature="0"
       id="path3249"
       style="fill:#8a97b8;fill-opacity:1;fill-rule:evenodd;stroke:none"
       d="m 313.824,453.207 c -0.099,-0.004 -0.199,-0.009 -0.297,-0.013 -0.002,0.09 -0.002,0.18 -0.006,0.269 0.102,0 0.206,0 0.309,-0.001 0.008,-0.086 0.006,-0.17 -0.006,-0.255" /><path
       inkscape:connector-curvature="0"
       id="path3251"
       style="fill:#8a97b8;fill-opacity:1;fill-rule:evenodd;stroke:none"
       d="m 314.086,453.776 c -0.023,-0.154 -0.106,-0.259 -0.254,-0.312 0.014,0.162 0.1,0.265 0.254,0.312" /><path
       inkscape:connector-curvature="0"
       id="path3253"
       style="fill:#4e6283;fill-opacity:1;fill-rule:evenodd;stroke:none"
       d="m 315.215,453.358 -0.131,-0.019 -0.133,-0.005 c 0.094,0.093 0.186,0.186 0.279,0.279 0.006,-0.085 0,-0.171 -0.015,-0.255" /><path
       inkscape:connector-curvature="0"
       id="path3255"
       style="fill:#a3acca;fill-opacity:1;fill-rule:evenodd;stroke:none"
       d="m 312.563,451.122 c -0.077,-0.258 -0.283,-0.335 -0.518,-0.368 0.084,0.247 0.289,0.321 0.518,0.368" /><path
       inkscape:connector-curvature="0"
       id="path3257"
       style="fill:#abb9df;fill-opacity:1;fill-rule:evenodd;stroke:none"
       d="m 290.214,453.631 c -0.086,0.257 -0.172,0.513 -0.258,0.768 -0.118,0.065 -0.236,0.131 -0.344,0.211 l 0.014,-0.008 c -0.335,0.132 -0.219,0.591 -0.534,0.737 l 0.007,-0.007 c -0.463,0.455 -0.405,1.122 -0.67,1.655 0.806,0.871 1.14,-0.083 1.634,-0.422 0.158,-0.123 0.339,-0.21 0.511,-0.311 0.602,-0.484 1.323,-0.855 1.593,-1.658 -0.035,-0.719 0.438,-1.531 -0.375,-2.113 -0.296,0.042 -0.26,0.425 -0.517,0.505 l -0.012,0.008 c -0.185,0.142 -0.431,0.001 -0.617,0.136 l 0.015,-0.01 c -0.226,0.103 -0.261,0.372 -0.447,0.509" /><path
       inkscape:connector-curvature="0"
       id="path3259"
       style="fill:#4e6283;fill-opacity:1;fill-rule:evenodd;stroke:none"
       d="m 292.062,454.444 c -0.45,0.641 -1.098,1.074 -1.683,1.572 -0.12,0.078 -0.194,0.186 -0.223,0.325 -0.035,0.424 -0.068,0.968 0.429,1.03 0.641,0.077 1.274,-0.197 1.753,-0.661 0.262,-0.256 0.399,-0.619 0.362,-1.011 -0.031,-0.164 -0.147,-0.245 -0.301,-0.288 0.098,-0.137 0.235,-0.044 0.359,-0.062 0.666,-0.134 1.078,-0.611 1.487,-1.092 0.054,-0.123 0.066,-0.25 0.033,-0.381 -0.17,-0.31 -0.448,-0.479 -0.772,-0.584 -0.771,0.02 -1.118,0.573 -1.444,1.152" /><path
       inkscape:connector-curvature="0"
       id="path3261"
       style="fill:#a8b6dc;fill-opacity:1;fill-rule:evenodd;stroke:none"
       d="m 292.062,454.444 c 0.489,-0.358 0.978,-0.717 1.465,-1.077 0.062,0.009 0.122,0.02 0.184,0.03 0.126,-0.019 0.241,-0.062 0.349,-0.126 0.211,-0.16 0.356,-0.352 0.328,-0.635 -0.234,-0.556 -0.381,-1.184 -1.071,-1.386 -0.088,-0.018 -0.174,-0.034 -0.261,-0.046 -0.038,0.082 -0.073,0.167 -0.106,0.252 -0.144,0.602 -0.805,0.477 -1.141,0.812 -0.033,0.09 -0.065,0.182 -0.098,0.273 0.185,0.154 0.344,0.324 0.277,0.591 -0.109,0.447 0.023,0.876 0.074,1.312" /><path
       inkscape:connector-curvature="0"
       id="path3263"
       style="fill:#9aa5bb;fill-opacity:1;fill-rule:evenodd;stroke:none"
       d="m 288.482,457.225 c -0.186,0.057 -0.375,0.115 -0.563,0.171 -0.122,0.245 -0.22,0.503 -0.372,0.727 -0.157,0.23 -0.385,0.455 -0.172,0.724 0.193,0.247 0.497,0.162 0.768,0.096 0.044,-0.011 0.091,-0.012 0.136,-0.017 l 0.006,0.009 c 0.3,-0.091 0.611,0.262 0.908,-0.021 l -0.009,0.011 c 0.134,-0.049 0.252,-0.126 0.361,-0.214 l -0.023,-0.021 c 0.069,-0.155 0.141,-0.309 0.211,-0.46 -0.006,-0.651 0.704,-1.162 0.37,-1.878 -0.032,-0.056 -0.063,-0.113 -0.094,-0.169 -0.13,0.121 -0.294,0.222 -0.384,0.368 -0.27,0.428 -0.649,0.637 -1.143,0.674" /><path
       inkscape:connector-curvature="0"
       id="path3265"
       style="fill:#9aa5bb;fill-opacity:1;fill-rule:evenodd;stroke:none"
       d="m 290.311,456.299 c 0.023,-0.094 0.045,-0.188 0.068,-0.283 -0.123,0.057 -0.246,0.112 -0.37,0.167 l 0.036,0.07 c 0.077,0.088 0.165,0.1 0.266,0.046" /><path
       inkscape:connector-curvature="0"
       id="path3267"
       style="fill:#c4cce2;fill-opacity:1;fill-rule:evenodd;stroke:none"
       d="m 298.948,452.333 c 0.082,0.021 0.165,0.037 0.25,0.048 0.001,-10e-4 0.037,-0.128 0.037,-0.128 l 0.054,-0.121 c 0.209,-0.104 0.226,-0.377 0.43,-0.487 l 0.028,-0.118 0.042,-0.116 c -0.055,-0.127 -0.023,-0.23 0.096,-0.304 l 0.038,-0.132 0.052,-0.128 c 0.313,-0.254 0.261,-0.5 -0.017,-0.74 -0.426,-0.152 -0.739,0.043 -1.024,0.329 -0.205,0.235 -0.388,0.487 -0.532,0.766 -0.123,0.522 -0.437,1.14 0.546,1.131" /><path
       inkscape:connector-curvature="0"
       id="path3269"
       style="fill:#677791;fill-opacity:1;fill-rule:evenodd;stroke:none"
       d="m 296.144,456.519 c 0.154,-0.14 0.308,-0.279 0.462,-0.418 -0.028,-1.132 -1.103,-0.546 -1.567,-0.961 -0.383,-0.079 -0.596,-0.323 -0.681,-0.694 -0.045,-0.114 -0.116,-0.206 -0.215,-0.276 -0.479,0.347 -0.959,0.695 -1.436,1.043 l -0.021,0.118 c 0,-0.001 0.102,0.058 0.102,0.058 l -0.118,0.003 c -0.001,0 -0.052,0.107 -0.052,0.107 -0.12,0.256 -0.259,0.504 -0.355,0.767 -0.127,0.352 -0.327,0.501 -0.724,0.491 -0.202,-0.005 -0.407,0.208 -0.617,0.313 -0.325,0.161 -0.362,0.125 -0.473,-0.379 -0.03,-0.135 -0.091,-0.262 -0.137,-0.392 -0.088,-0.022 -0.177,-0.038 -0.268,-0.046 -0.047,0.224 -0.161,0.455 -0.131,0.668 0.07,0.549 -0.241,0.739 -0.681,0.866 -0.077,0.021 -0.136,0.109 -0.207,0.17 0.149,0.32 0.509,0.088 0.708,0.273 l -0.002,-0.005 c 0.104,-0.08 0.207,-0.163 0.309,-0.243 0.058,-0.043 0.106,-0.094 0.144,-0.157 0.136,-0.247 0.419,-0.072 0.595,-0.204 1.13,0.303 2.169,-0.147 3.197,-0.464 0.72,-0.223 1.446,-0.421 2.168,-0.638" /><path
       inkscape:connector-curvature="0"
       id="path3271"
       style="fill:#9aa5bb;fill-opacity:1;fill-rule:evenodd;stroke:none"
       d="m 290.779,457.621 c -0.245,-0.072 -0.467,-0.069 -0.595,0.204 0.229,0.022 0.445,0.002 0.595,-0.204" /><path
       inkscape:connector-curvature="0"
       id="path3273"
       style="fill:#9aa5bb;fill-opacity:1;fill-rule:evenodd;stroke:none"
       d="m 290.04,457.982 c -0.158,0.012 -0.268,0.083 -0.309,0.243 0.165,-0.002 0.266,-0.088 0.309,-0.243" /><path
       inkscape:connector-curvature="0"
       id="path3275"
       style="fill:#8394a8;fill-opacity:1;fill-rule:evenodd;stroke:none"
       d="m 299.828,450.212 c 0.103,-0.2 0.21,-0.396 0.426,-0.496 -0.115,-0.531 -0.558,-0.425 -0.921,-0.471 -0.041,0.067 -0.081,0.136 -0.122,0.203 -0.021,0.058 -0.04,0.115 -0.062,0.172 -0.164,0.257 -0.403,0.485 -0.308,0.839 0.043,0.083 0.104,0.13 0.18,0.145 0.079,0.015 0.121,0.015 0.125,-0.002 0.181,-0.215 0.384,-0.387 0.682,-0.39" /><path
       inkscape:connector-curvature="0"
       id="path3277"
       style="fill:#79879b;fill-opacity:1;fill-rule:evenodd;stroke:none"
       d="m 294.794,455.259 c 0.292,0.292 0.588,0.56 1.061,0.455 0.341,-0.077 0.631,0.008 0.751,0.387 0.089,0.019 0.177,0.041 0.267,0.064 0.111,-0.073 0.223,-0.145 0.335,-0.218 0.102,-0.294 0.179,-0.606 0.518,-0.732 0.172,-0.352 0.225,-0.777 0.622,-0.985 0.046,-0.183 0.091,-0.365 0.138,-0.548 -0.162,-0.293 0.277,-0.679 -0.084,-0.902 -0.295,-0.181 -0.489,0.172 -0.72,0.292 -0.636,-0.27 -0.28,-1.009 -0.668,-1.388 -0.527,-0.118 -0.73,0.226 -0.893,0.625 -0.037,0.546 0.139,1.092 0,1.665 -0.223,-0.309 -0.168,-0.744 -0.524,-0.947 -0.294,-0.082 -0.484,0.07 -0.644,0.288 -0.104,0.228 -0.07,0.465 -0.047,0.7 0.011,0.161 0.004,0.322 -0.045,0.48 -0.084,0.249 -0.266,0.492 -0.067,0.764" /><path
       inkscape:connector-curvature="0"
       id="path3279"
       style="fill:#a3acca;fill-opacity:1;fill-rule:evenodd;stroke:none"
       d="m 297.702,453.46 c 0.292,-0.055 0.355,-0.374 0.578,-0.524 0.072,0.261 0.139,0.504 0.206,0.746 0.154,-0.45 0.307,-0.9 0.461,-1.35 -0.343,-0.133 -0.497,-0.366 -0.385,-0.735 0.051,-0.172 0.107,-0.343 0.161,-0.513 -0.047,-0.047 -0.092,-0.093 -0.136,-0.139 -0.337,-0.09 -0.649,-0.08 -0.896,0.211 -0.045,0.124 -0.066,0.253 -0.066,0.386 0.178,0.632 -0.273,1.292 0.077,1.918" /><path
       inkscape:connector-curvature="0"
       id="path3281"
       style="fill:#abb9df;fill-opacity:1;fill-rule:evenodd;stroke:none"
       d="m 291.809,452.268 c 0.184,-0.029 0.365,-0.064 0.551,-0.083 0.612,-0.061 0.611,-0.059 0.589,-0.73 -0.081,-0.023 -0.164,-0.043 -0.248,-0.056 -0.154,0.28 -0.389,0.406 -0.705,0.388 -0.062,0.16 -0.123,0.321 -0.187,0.481" /><path
       inkscape:connector-curvature="0"
       id="path3283"
       style="fill:#a8b5dc;fill-opacity:1;fill-rule:evenodd;stroke:none"
       d="m 296.872,449.361 c -0.123,0.057 -0.244,0.113 -0.364,0.171 -0.279,0.262 -0.604,0.368 -0.985,0.297 -0.088,0.21 -0.218,0.377 -0.45,0.44 -0.321,0.112 -0.64,0.223 -0.96,0.336 -0.032,0.084 -0.067,0.169 -0.103,0.251 -0.099,0.634 0.683,0.847 0.686,1.433 0.1,0.092 0.217,0.146 0.35,0.165 1.466,-0.624 2.644,-1.656 3.825,-2.686 -0.031,-0.059 -0.061,-0.119 -0.089,-0.177 -0.159,-0.042 -0.319,-0.085 -0.479,-0.126 -0.498,0.268 -0.953,-0.103 -1.431,-0.104" /><path
       inkscape:connector-curvature="0"
       id="path3285"
       style="fill:#8394a8;fill-opacity:1;fill-rule:evenodd;stroke:none"
       d="m 299.211,449.448 c -0.087,-0.02 -0.173,-0.04 -0.259,-0.059 -0.04,0.082 -0.096,0.149 -0.17,0.202 0.061,0.01 0.12,0.026 0.18,0.046 0.122,0.032 0.215,-0.004 0.274,-0.117 l -0.025,-0.072" /><path
       inkscape:connector-curvature="0"
       id="path3287"
       style="fill:#b4c4e9;fill-opacity:1;fill-rule:evenodd;stroke:none"
       d="m 294.778,452.279 c 0.011,-0.179 0.035,-0.358 0.029,-0.536 -0.017,-0.346 -0.137,-0.595 -0.553,-0.607 -0.084,-0.002 -0.163,-0.183 -0.244,-0.28 -0.086,-0.024 -0.173,-0.042 -0.26,-0.057 -0.114,0.066 -0.228,0.132 -0.342,0.198 -0.037,0.083 -0.068,0.166 -0.091,0.252 0.267,0.55 0.605,1.05 1.025,1.495 0,0 0.139,-0.002 0.139,0 0.094,-0.019 0.177,-0.059 0.253,-0.117 0.001,0.002 0.092,-0.106 0.094,-0.105 0.069,-0.097 0.052,-0.18 -0.05,-0.243" /><path
       inkscape:connector-curvature="0"
       id="path3289"
       style="fill:#385078;fill-opacity:1;fill-rule:evenodd;stroke:none"
       d="m 294.99,453.519 c 0.151,-0.152 0.301,-0.305 0.452,-0.456 0.11,-0.084 0.147,-0.192 0.113,-0.325 -0.122,-0.165 -0.284,-0.246 -0.489,-0.247 -0.13,-0.025 -0.248,0.002 -0.348,0.092 l -0.004,0.002 c -0.148,0.005 -0.255,0.088 -0.356,0.184 l -0.016,-0.025 c -0.152,0.131 -0.3,0.261 -0.452,0.391 -0.097,0.114 -0.206,0.21 -0.359,0.238 l -0.003,-0.006 c 0.109,0.386 0.455,0.443 0.763,0.556 0.048,0.002 0.096,0.005 0.144,0.009 0.095,-0.018 0.185,-0.054 0.271,-0.097 0.127,-0.076 0.232,-0.172 0.284,-0.316" /><path
       inkscape:connector-curvature="0"
       id="path3291"
       style="fill:#384d78;fill-opacity:1;fill-rule:evenodd;stroke:none"
       d="m 292.707,455.213 c -0.236,-0.046 -0.472,-0.056 -0.638,0.15 -0.079,0.096 -0.187,0.269 -0.152,0.338 0.074,0.142 0.217,0.055 0.335,-0.017 0.116,-0.071 0.244,-0.124 0.366,-0.185 l 0.001,0 c 0.096,-0.074 0.123,-0.169 0.087,-0.282 l 10e-4,-0.004" /><path
       inkscape:connector-curvature="0"
       id="path3293"
       style="fill:#999cc4;fill-opacity:1;fill-rule:evenodd;stroke:none"
       d="m 294.291,453.923 c -0.05,0.083 -0.099,0.165 -0.148,0.247 l 0.125,0.012 c 0.114,0.056 0.217,0.043 0.307,-0.048 0.005,-0.059 0.009,-0.117 0.013,-0.176 -0.091,-0.094 -0.192,-0.105 -0.303,-0.035 l 0.006,0" /><path
       inkscape:connector-curvature="0"
       id="path3295"
       style="fill:#4e6283;fill-opacity:1;fill-rule:evenodd;stroke:none"
       d="m 293.531,453.373 c 0.165,-0.008 0.286,-0.087 0.36,-0.237 -0.161,0.019 -0.29,0.084 -0.36,0.237" /><path
       inkscape:connector-curvature="0"
       id="path3297"
       style="fill:#a3acca;fill-opacity:1;fill-rule:evenodd;stroke:none"
       d="m 299.146,450.602 c -0.09,-0.029 -0.182,-0.057 -0.273,-0.084 -0.048,0.026 -0.095,0.052 -0.143,0.078 -0.102,0.142 -0.142,0.287 -0.038,0.447 l 0.031,0.041 c 0.247,-0.067 0.361,-0.254 0.423,-0.482" /><path
       inkscape:connector-curvature="0"
       id="path3299"
       style="fill:#acb8dc;fill-opacity:1;fill-rule:evenodd;stroke:none"
       d="m 294.573,454.039 c -0.102,0.048 -0.204,0.096 -0.305,0.143 -0.158,0.23 -0.262,0.477 -0.17,0.753 0.112,0.342 0.31,0.547 0.696,0.324 0.155,-0.241 0.309,-0.484 0.465,-0.726 -0.035,-0.103 -0.101,-0.184 -0.191,-0.243 -0.144,-0.125 -0.209,-0.405 -0.495,-0.251" /><path
       inkscape:connector-curvature="0"
       id="path3301"
       style="fill:#4e6283;fill-opacity:1;fill-rule:evenodd;stroke:none"
       d="m 292.706,455.217 c -0.029,0.094 -0.058,0.189 -0.086,0.282 0.214,-0.039 0.243,-0.131 0.086,-0.282" /><path
       inkscape:connector-curvature="0"
       id="path3303"
       style="fill:#657c99;fill-opacity:1;fill-rule:evenodd;stroke:none"
       d="m 294.967,452.628 c 0.182,0.053 0.362,0.108 0.544,0.161 0.42,0.216 0.653,0.083 0.711,-0.379 0.252,-0.24 0.427,-0.583 0.829,-0.626 0.072,0.096 0.166,0.13 0.282,0.104 0.15,-0.081 0.263,-0.201 0.342,-0.352 0.02,-0.05 0.04,-0.102 0.06,-0.154 0.026,-0.085 0.057,-0.167 0.096,-0.247 0.36,-0.185 0.744,-0.325 1.042,-0.617 l 0,0 c 0.072,-0.331 0.366,-0.473 0.57,-0.695 0.19,-0.209 -0.031,-0.272 -0.207,-0.304 -0.091,0.04 -0.183,0.08 -0.275,0.117 -0.974,0.471 -1.887,1.033 -2.694,1.767 -0.379,0.346 -0.817,0.626 -1.226,0.937 -0.129,0.07 -0.157,0.164 -0.074,0.288" /><path
       inkscape:connector-curvature="0"
       id="path3305"
       style="fill:#8a97b8;fill-opacity:1;fill-rule:evenodd;stroke:none"
       d="m 296.222,452.41 c -0.19,0.213 -0.417,0.361 -0.711,0.379 -0.039,0.087 -0.062,0.178 -0.069,0.274 0.357,0.517 0.202,1.176 0.476,1.714 0.032,0.062 0.149,0.112 0.224,0.108 0.076,-0.002 0.201,-0.065 0.216,-0.125 0.183,-0.71 0.317,-1.427 0.05,-2.147 -0.03,-0.079 -0.122,-0.137 -0.186,-0.203" /><path
       inkscape:connector-curvature="0"
       id="path3307"
       style="fill:#adbbe0;fill-opacity:1;fill-rule:evenodd;stroke:none"
       d="m 297.264,451.815 c -0.071,-0.014 -0.142,-0.023 -0.214,-0.031 -0.35,0.71 0.004,1.331 0.304,1.927 0.081,0.162 0.271,-0.099 0.348,-0.251 0.104,-0.359 0.206,-0.715 0.313,-1.072 0.119,-0.395 0.032,-0.732 -0.28,-1.006 l -0.006,-0.001 c -0.208,0.088 -0.235,0.369 -0.465,0.434" /><path
       inkscape:connector-curvature="0"
       id="path3309"
       style="fill:#999cc4;fill-opacity:1;fill-rule:evenodd;stroke:none"
       d="m 294.573,454.039 c 0.152,0.127 0.303,0.254 0.455,0.38 0.115,-0.063 0.149,-0.15 0.09,-0.271 0.054,-0.23 0.057,-0.449 -0.128,-0.629 -0.126,0.062 -0.25,0.125 -0.375,0.188 -0.1,0.062 -0.125,0.146 -0.077,0.253 l 0.035,0.079" /><path
       inkscape:connector-curvature="0"
       id="path3311"
       style="fill:#8a97b8;fill-opacity:1;fill-rule:evenodd;stroke:none"
       d="m 295.118,454.148 c -0.031,0.09 -0.06,0.181 -0.09,0.271 0.077,0.039 0.154,0.076 0.231,0.114 -0.047,-0.129 -0.093,-0.257 -0.141,-0.385" /><path
       inkscape:connector-curvature="0"
       id="path3313"
       style="fill:#8394a8;fill-opacity:1;fill-rule:evenodd;stroke:none"
       d="m 298.873,450.518 c -0.423,0.078 -0.792,0.247 -1.044,0.616 0.289,-0.03 0.576,-0.06 0.863,-0.091 0.06,-0.176 0.121,-0.35 0.181,-0.525" /><path
       inkscape:connector-curvature="0"
       id="path3315"
       style="fill:#8a97b8;fill-opacity:1;fill-rule:evenodd;stroke:none"
       d="m 294.967,452.628 c 0.025,-0.096 0.05,-0.192 0.074,-0.288 -0.089,-0.02 -0.177,-0.039 -0.263,-0.061 -0.02,0.101 -0.041,0.203 -0.062,0.304 0.083,0.025 0.166,0.039 0.251,0.045" /><path
       inkscape:connector-curvature="0"
       id="path3317"
       style="fill:#8a97b8;fill-opacity:1;fill-rule:evenodd;stroke:none"
       d="m 294.358,452.769 c 0.155,0.008 0.274,-0.051 0.356,-0.184 -0.161,-0.02 -0.279,0.043 -0.356,0.184" /><path
       inkscape:connector-curvature="0"
       id="path3319"
       style="fill:#4e6283;fill-opacity:1;fill-rule:evenodd;stroke:none"
       d="m 294.538,453.96 0.046,-0.124 0.031,-0.129 c -0.11,0.072 -0.22,0.144 -0.33,0.216 0.083,0.024 0.168,0.036 0.253,0.037" /><path
       inkscape:connector-curvature="0"
       id="path3321"
       style="fill:#a3acca;fill-opacity:1;fill-rule:evenodd;stroke:none"
       d="m 297.264,451.815 c 0.269,-0.024 0.386,-0.21 0.465,-0.434 -0.258,0.032 -0.373,0.219 -0.465,0.434" /><path
       inkscape:connector-curvature="0"
       id="path3323"
       style="fill:#c1e7a5;fill-opacity:1;fill-rule:evenodd;stroke:none"
       d="m 310.793,445.805 c 0.061,-0.056 0.131,-0.1 0.207,-0.131 0.082,-0.208 0.263,-0.316 0.438,-0.429 0.083,-0.07 0.134,-0.157 0.163,-0.261 l -0.003,0.002 c 0.033,-0.125 0.022,-0.245 -0.035,-0.362 -0.482,-0.658 -0.603,-1.559 -1.358,-2.037 -0.937,0.208 -1.883,0.205 -2.829,0.081 -0.117,-0.018 -0.236,-0.031 -0.355,-0.048 -0.284,-0.051 -0.566,-0.178 -0.861,-0.045 -0.098,0.067 -0.17,0.157 -0.217,0.266 0.008,0.12 0.047,0.228 0.121,0.322 0.126,0.126 0.267,0.234 0.409,0.343 0.089,0.083 0.18,0.161 0.272,0.242 0.578,0.575 1.111,1.184 1.516,1.895 0.239,0.258 0.864,0.002 0.825,0.625 -0.069,0.264 -0.227,0.504 -0.211,0.79 0.034,0.111 0.102,0.195 0.208,0.245 0.223,0.043 0.441,0.027 0.658,-0.04 0.098,-0.048 0.174,-0.12 0.234,-0.211 0.053,-0.141 0.083,-0.289 0.125,-0.433 0.037,-0.085 0.072,-0.171 0.115,-0.252 0.087,-0.12 0.227,-0.149 0.353,-0.206 0.141,-0.079 0.227,-0.19 0.225,-0.356" /><path
       inkscape:connector-curvature="0"
       id="path3325"
       style="fill:#c6e8a4;fill-opacity:1;fill-rule:evenodd;stroke:none"
       d="m 298.015,454.421 c 0.089,0.147 0.179,0.293 0.268,0.44 0.397,0.167 0.479,0.581 0.695,0.89 0.035,0.128 0.089,0.246 0.163,0.356 0.209,0.152 0.279,0.46 0.576,0.515 l -0.016,-0.005 c 0.196,0.058 0.384,10e-4 0.573,-0.043 0.614,-0.161 1.273,-0.236 1.673,-0.83 0.104,-0.066 0.204,-0.138 0.299,-0.218 0.073,-0.097 0.139,-0.201 0.2,-0.308 0.025,-0.056 0.048,-0.113 0.072,-0.169 0.059,-0.178 0.139,-0.347 0.211,-0.521 0.018,-0.129 0.007,-0.254 -0.032,-0.379 -0.12,-0.247 -0.289,-0.435 -0.58,-0.47 -0.947,0.422 -2.309,0.265 -3.251,-0.371 -0.113,-0.076 -0.245,-0.118 -0.377,-0.151 -0.066,-0.005 -0.132,-0.008 -0.197,-0.013 -0.062,0.019 -0.125,0.039 -0.188,0.058 -0.107,0.078 -0.185,0.179 -0.234,0.302 -0.021,0.126 -0.021,0.253 -10e-4,0.38 0.075,0.171 0.176,0.336 0.146,0.537" /><path
       inkscape:connector-curvature="0"
       id="path3327"
       style="fill:#c9e9a2;fill-opacity:1;fill-rule:evenodd;stroke:none"
       d="m 305.378,455.136 c 0.054,0.066 0.094,0.141 0.123,0.222 -0.061,0.219 0.122,0.409 0.074,0.628 l -10e-4,-0.011 c 0.136,0.63 0.313,1.225 1.114,1.271 l -0.009,0 c 0.129,0.048 0.261,0.077 0.395,0.097 l -0.007,-0.006 c 0.156,0.053 0.316,0.087 0.479,0.109 0.112,0.012 0.224,0.007 0.336,-0.009 0.168,-0.036 0.331,-0.094 0.501,-0.128 0.054,-0.025 0.106,-0.051 0.161,-0.076 0.083,-0.091 0.163,-0.183 0.246,-0.273 0.397,-0.335 0.492,-0.73 0.242,-1.195 -0.219,-0.358 -0.529,-0.626 -0.855,-0.876 -0.182,-0.139 -0.542,-0.313 -0.598,-0.138 -0.525,1.653 -1.298,0.109 -1.933,0.172 -0.148,-0.003 -0.237,0.068 -0.268,0.213" /><path
       inkscape:connector-curvature="0"
       id="path3329"
       style="fill:#bae48f;fill-opacity:1;fill-rule:evenodd;stroke:none"
       d="m 308.824,455.935 c 0.125,0.242 0.157,0.466 -0.053,0.695 -0.108,0.115 -0.153,0.287 -0.226,0.435 0.216,0.142 0.417,-0.122 0.63,-0.025 l 0.004,-0.001 c 0.336,0.065 0.555,-0.297 0.887,-0.243 0.045,-0.052 0.099,-0.085 0.164,-0.103 0.08,-0.212 0.326,-0.314 0.365,-0.552 l -0.002,0.009 c 0.052,-0.217 0.301,-0.314 0.333,-0.542 l -0.004,0.012 c 0.044,-0.128 0.07,-0.259 0.102,-0.39 l -10e-4,0.003 c 0.025,-0.21 -0.044,-0.41 -0.065,-0.614 -0.053,-0.174 -0.122,-0.343 -0.227,-0.493 -0.23,-0.333 -0.436,-0.802 -0.894,-0.729 -0.437,0.069 -0.388,0.583 -0.402,0.91 -0.028,0.624 -0.662,0.995 -0.611,1.628" /><path
       inkscape:connector-curvature="0"
       id="path3331"
       style="fill:#96c88a;fill-opacity:1;fill-rule:evenodd;stroke:none"
       d="m 306.449,447.83 c 0.353,-0.165 0.701,-0.158 1.044,0.027 0.445,-0.022 0.703,0.36 1.076,0.497 0.476,0.177 0.985,0.785 1.382,-0.1 0.031,-0.127 0.027,-0.253 -0.005,-0.38 -0.149,-0.427 -0.625,-0.403 -0.905,-0.65 0.062,-0.253 0.125,-0.508 0.188,-0.761 -0.046,-0.039 -0.092,-0.08 -0.136,-0.122 -0.266,-0.148 -0.511,-0.336 -0.802,-0.438 -0.848,0.418 -1.764,0.773 -1.842,1.927" /><path
       inkscape:connector-curvature="0"
       id="path3333"
       style="fill:#9dca8c;fill-opacity:1;fill-rule:evenodd;stroke:none"
       d="m 308.398,445.625 c -0.127,-0.205 -0.172,-0.423 -0.141,-0.666 0.023,-0.182 0.041,-0.418 -0.186,-0.468 -0.523,-0.116 -0.695,-0.588 -1.013,-0.914 -0.088,-0.09 -0.248,-0.11 -0.375,-0.163 -0.242,0.287 -0.427,0.603 -0.516,0.971 0.479,0.837 0.986,1.628 2.155,1.417 0.026,-0.059 0.051,-0.118 0.076,-0.177" /><path
       inkscape:connector-curvature="0"
       id="path3335"
       style="fill:#9dca8c;fill-opacity:1;fill-rule:evenodd;stroke:none"
       d="m 306.128,443.087 c -0.384,0.3 -0.731,0.625 -1.206,0.832 -0.303,0.133 -0.888,0.363 -0.644,0.983 0.639,0.472 1.031,-0.034 1.465,-0.37 0.111,-0.048 0.209,-0.116 0.297,-0.198 0.231,-0.348 0.398,-0.723 0.48,-1.134 -0.13,-0.038 -0.261,-0.075 -0.392,-0.113" /><path
       inkscape:connector-curvature="0"
       id="path3337"
       style="fill:#bae4a3;fill-opacity:1;fill-rule:evenodd;stroke:none"
       d="m 311.515,444.757 c 0.096,-0.175 0.193,-0.351 0.289,-0.526 l 0.004,-0.022 c 0.005,-0.117 -0.008,-0.23 -0.041,-0.341 -0.081,-0.262 -0.249,-0.497 -0.24,-0.788 -0.037,-0.113 -0.115,-0.183 -0.228,-0.213 l -0.014,-0.004 c -0.07,0.05 -0.142,0.098 -0.217,0.143 -0.411,0.094 -0.372,-0.872 -0.943,-0.403 l 0,-0.001 c 0.415,0.621 0.57,1.386 1.08,1.952 0.079,0.089 0.206,0.137 0.31,0.203" /><path
       inkscape:connector-curvature="0"
       id="path3339"
       style="fill:#7eb47d;fill-opacity:1;fill-rule:evenodd;stroke:none"
       d="m 309.041,447.224 c -0.083,0.187 -0.077,0.382 0.132,0.444 0.264,0.076 0.537,0.104 0.699,0.363 0.428,0.114 0.853,0.083 1.053,-0.344 0.179,-0.383 -0.244,-0.514 -0.463,-0.715 -0.198,-0.099 -0.395,-0.164 -0.566,0.048 -0.078,0.053 -0.156,0.107 -0.233,0.161 -0.215,-0.076 -0.405,0.138 -0.621,0.046 l -10e-4,-0.003" /><path
       inkscape:connector-curvature="0"
       id="path3341"
       style="fill:#96c88a;fill-opacity:1;fill-rule:evenodd;stroke:none"
       d="m 309.229,446.463 c 0.118,-0.13 0.264,-0.245 0.345,-0.395 0.09,-0.168 0.05,-0.36 -0.142,-0.443 -0.341,-0.146 -0.69,-0.175 -1.034,10e-4 0,-10e-4 -0.004,0.044 -0.004,0.044 -0.037,0.12 -0.019,0.232 0.054,0.336 0.154,0.287 0.371,0.471 0.718,0.449 l 0.063,0.008" /><path
       inkscape:connector-curvature="0"
       id="path3343"
       style="fill:#91bf87;fill-opacity:1;fill-rule:evenodd;stroke:none"
       d="m 306.52,443.2 c -0.503,0.175 -0.519,0.648 -0.644,1.055 0.08,0.242 0.205,0.283 0.384,0.087 0.556,-0.388 0.556,-0.388 0.423,-0.928 -0.048,-0.076 -0.103,-0.148 -0.163,-0.214" /><path
       inkscape:connector-curvature="0"
       id="path3345"
       style="fill:#96c88a;fill-opacity:1;fill-rule:evenodd;stroke:none"
       d="m 309.042,447.227 c 0.218,0.138 0.422,0.072 0.621,-0.046 -0.218,-0.116 -0.421,-0.069 -0.621,0.046" /><path
       inkscape:connector-curvature="0"
       id="path3347"
       style="fill:#bbe496;fill-opacity:1;fill-rule:evenodd;stroke:none"
       d="m 298.003,451.773 c -0.1,0.174 -0.201,0.348 -0.301,0.522 0.135,0.239 0.272,0.479 0.407,0.718 -0.029,0.086 -0.019,0.148 0.031,0.185 0.05,0.038 0.086,0.05 0.106,0.038 0.742,0.526 1.523,1.009 1.769,1.989 0.055,0.22 0.543,0.259 0.722,0.074 0.157,-0.163 0.305,-0.343 0.413,-0.539 0.253,-0.46 0.636,-0.766 1.092,-0.996 0.484,-0.077 0.807,-0.293 0.739,-0.85 -0.051,-0.064 -0.085,-0.136 -0.104,-0.218 0.039,-0.345 0.512,-0.334 0.557,-0.676 l 10e-4,0 c -0.033,-0.08 -0.072,-0.158 -0.116,-0.233 -0.3,-0.226 -0.675,-0.285 -0.999,-0.457 -0.33,-0.142 -0.546,-0.444 -0.859,-0.608 -0.058,-0.007 -0.117,-0.014 -0.175,-0.021 -0.662,-0.306 -1.288,-0.338 -1.878,0.183 -0.201,0.178 -0.456,0.292 -0.686,0.436 l 0,-0.002 c -0.131,0.327 -0.378,0.47 -0.724,0.452 l 0.005,0.003" /><path
       inkscape:connector-curvature="0"
       id="path3349"
       style="fill:#86bf7f;fill-opacity:1;fill-rule:evenodd;stroke:none"
       d="m 303.872,447.46 c 0.007,-0.21 0.014,-0.421 0.021,-0.632 -0.559,-1.618 -0.613,-1.652 -1.873,-1.185 -0.271,0.236 -0.262,0.48 -0.153,0.833 0.225,0.726 -0.067,1.319 -0.683,1.752 -0.094,0.079 -0.17,0.175 -0.226,0.285 -0.025,0.199 0.077,0.332 0.228,0.439 0.091,0.055 0.192,0.096 0.293,0.129 0.137,0.05 0.269,0.113 0.366,0.232 0.041,0.091 0.082,0.18 0.117,0.274 0.066,0.202 0.106,0.41 0.163,0.615 0.039,0.111 0.097,0.209 0.171,0.301 0.091,0.082 0.197,0.129 0.318,0.144 0.057,-0.023 0.113,-0.045 0.169,-0.067 0.043,-0.044 0.085,-0.088 0.127,-0.132 0.063,-0.105 0.111,-0.216 0.144,-0.334 0.057,-0.232 0.068,-0.472 0.087,-0.71 0.011,-0.419 0.251,-0.759 0.407,-1.126 0.098,-0.277 0.232,-0.539 0.324,-0.818" /><path
       inkscape:connector-curvature="0"
       id="path3351"
       style="fill:#87b97f;fill-opacity:1;fill-rule:evenodd;stroke:none"
       d="m 306.26,444.342 c -0.128,-0.03 -0.256,-0.058 -0.384,-0.087 -0.079,0.048 -0.158,0.095 -0.238,0.142 -0.153,0.014 -0.303,0.143 -0.245,0.244 0.432,0.769 1.022,1.468 0.005,2.306 -0.285,0.235 0.072,0.757 0.439,1.011 0.238,0.117 0.438,0.055 0.612,-0.128 -0.015,-0.242 0.139,-0.412 0.257,-0.599 0.205,-0.324 0.628,0.044 0.835,-0.273 0.168,-0.258 0.063,-0.642 0.373,-0.822 0.109,-0.065 0.257,-0.063 0.388,-0.092 0.151,0.068 0.228,0.014 0.239,-0.147 -0.048,-0.077 -0.097,-0.153 -0.147,-0.228 -0.397,0.007 -0.844,0.17 -0.978,-0.45 -0.053,-0.246 -0.322,-0.297 -0.563,-0.332 -0.316,-0.045 -0.438,-0.317 -0.593,-0.545" /><path
       inkscape:connector-curvature="0"
       id="path3353"
       style="fill:#91bf87;fill-opacity:1;fill-rule:evenodd;stroke:none"
       d="m 305.837,447.958 c -0.098,-0.252 -0.242,-0.497 -0.283,-0.759 -0.035,-0.219 0.05,-0.485 0.347,-0.482 0.233,0.001 0.446,0.079 0.428,-0.287 -0.009,-0.178 0.028,-0.366 0.08,-0.539 0.109,-0.366 -0.024,-0.598 -0.337,-0.792 -0.249,-0.154 -0.639,-0.255 -0.434,-0.702 -0.495,-0.168 -0.505,-0.169 -0.544,0.205 -0.014,0.133 0.031,0.29 -0.182,0.223 -0.229,-0.074 -0.433,-0.027 -0.634,0.077 0.101,1.231 0.518,2.303 1.559,3.056" /><path
       inkscape:connector-curvature="0"
       id="path3355"
       style="fill:#acdf90;fill-opacity:1;fill-rule:evenodd;stroke:none"
       d="m 301.783,446.137 c 1.13,-0.831 1.296,-0.63 1.879,0.357 0.067,0.117 0.153,0.223 0.231,0.334 0.141,-0.359 -0.037,-0.712 -0.024,-1.067 0.016,-0.441 -0.367,-0.589 -0.59,-0.855 -0.072,0.033 -0.146,0.06 -0.221,0.084 -0.57,-0.284 -0.904,0.201 -1.327,0.401 -0.426,0.485 -1.126,-0.074 -1.552,0.404 0.171,0.514 0.363,1.028 0.023,1.553 -0.024,0.539 0.124,0.954 0.745,1.02 0.762,-0.561 0.726,-1.423 0.836,-2.231" /><path
       inkscape:connector-curvature="0"
       id="path3357"
       style="fill:#96be92;fill-opacity:1;fill-rule:evenodd;stroke:none"
       d="m 303.872,447.46 c -0.178,0.223 -0.356,0.447 -0.534,0.671 0.075,0.531 -0.321,0.877 -0.511,1.305 0.017,0.207 0.035,0.414 0.054,0.623 0.102,0.159 -0.067,0.254 -0.092,0.384 l -10e-4,0.001 c -0.001,0.525 0.308,0.665 0.769,0.615 0.165,-0.321 0.344,-0.636 0.489,-0.966 0.069,-0.158 0.163,-0.401 0.095,-0.509 -0.433,-0.673 -0.169,-1.419 -0.269,-2.124" /><path
       inkscape:connector-curvature="0"
       id="path3359"
       style="fill:#9bcd8f;fill-opacity:1;fill-rule:evenodd;stroke:none"
       d="m 306.433,448.768 c -0.225,-0.075 -0.456,-0.126 -0.664,0.02 -0.112,0.077 -0.171,0.258 -0.285,0.295 -0.753,0.242 -0.951,0.72 -0.66,1.434 0.032,0.054 0.063,0.109 0.095,0.163 0.194,0.306 0.377,0.708 0.811,0.574 0.364,-0.113 0.296,-0.517 0.284,-0.827 -0.018,-0.482 0.239,-0.866 0.413,-1.282 0.042,-0.125 0.041,-0.251 0.006,-0.377" /><path
       inkscape:connector-curvature="0"
       id="path3361"
       style="fill:#8ec880;fill-opacity:1;fill-rule:evenodd;stroke:none"
       d="m 308.628,448.156 c -0.131,-0.115 -0.278,-0.216 -0.391,-0.347 -0.345,-0.406 -0.343,-0.404 -0.744,0.048 -0.006,0.078 0.015,0.149 0.06,0.213 -0.116,0.588 -0.546,1.249 0.366,1.604 0.693,-0.293 1.376,-0.59 0.709,-1.518" /><path
       inkscape:connector-curvature="0"
       id="path3363"
       style="fill:#8fc384;fill-opacity:1;fill-rule:evenodd;stroke:none"
       d="m 303.557,451.059 c -0.267,-0.191 -0.591,-0.312 -0.769,-0.615 -0.079,0.049 -0.158,0.099 -0.236,0.147 -0.153,-0.026 -0.3,-0.007 -0.441,0.054 -0.365,0.298 -0.47,0.591 0.016,0.871 0.366,0.229 0.719,0.516 1.191,0.272 0.138,-0.224 0.246,-0.458 0.239,-0.729" /><path
       inkscape:connector-curvature="0"
       id="path3365"
       style="fill:#c0e696;fill-opacity:1;fill-rule:evenodd;stroke:none"
       d="m 304.307,451.797 c 0.064,0.044 0.134,0.083 0.188,0.137 0.013,0.013 -0.027,0.08 -0.042,0.121 0.155,0.267 0.352,0.525 0.194,0.862 -0.02,0.129 -0.04,0.259 -0.06,0.388 0.046,0.077 0.083,0.158 0.111,0.243 0.064,0.069 0.13,0.14 0.195,0.21 0.223,-0.026 0.445,-0.159 0.675,-0.009 0.099,-0.071 0.162,-0.163 0.192,-0.282 -0.072,-0.698 -0.39,-1.335 -0.466,-2.032 -0.108,-0.263 -0.263,-0.477 -0.566,-0.533 -0.29,0.147 -0.421,0.419 -0.543,0.698 0.048,0.06 0.089,0.127 0.122,0.197" /><path
       inkscape:connector-curvature="0"
       id="path3367"
       style="fill:#9bcd8f;fill-opacity:1;fill-rule:evenodd;stroke:none"
       d="m 307.874,449.602 c -0.469,-0.435 -0.169,-1.03 -0.321,-1.531 -0.28,0.382 -0.723,0.502 -1.12,0.697 l -0.015,0.129 c 0.033,0.178 0.174,0.244 0.318,0.306 0.137,0.069 0.267,0.152 0.38,0.259 0.072,0.081 0.15,0.152 0.232,0.222 0.09,0.067 0.189,0.109 0.298,0.128 0.114,-0.03 0.187,-0.101 0.228,-0.21" /><path
       inkscape:connector-curvature="0"
       id="path3369"
       style="fill:#9bcd8f;fill-opacity:1;fill-rule:evenodd;stroke:none"
       d="m 304.728,450.902 c 0.14,0.236 0.281,0.472 0.421,0.708 0.114,0.323 0.269,0.259 0.441,0.047 -0.1,-0.443 -0.372,-0.779 -0.676,-1.096 l -0.09,-0.044 c -0.032,0.129 -0.064,0.257 -0.096,0.385" /><path
       inkscape:connector-curvature="0"
       id="path3371"
       style="fill:#c0e696;fill-opacity:1;fill-rule:evenodd;stroke:none"
       d="m 310.755,454.771 c 0.059,-0.063 0.119,-0.125 0.18,-0.187 -0.083,-0.155 -0.165,-0.31 -0.249,-0.465 0.02,-0.133 0.048,-0.266 0.048,-0.403 -0.131,-0.231 -0.262,-0.463 -0.393,-0.695 -0.266,-0.429 -0.53,-0.857 -0.795,-1.286 -0.146,-0.236 -0.281,-0.476 -0.176,-0.769 -0.083,-0.371 -0.348,-0.606 -0.687,-0.5 -0.441,0.138 -0.203,0.511 -0.136,0.803 0.304,0.568 0.847,1.202 -0.383,1.333 -1.042,0.024 -1.823,0.67 -2.686,1.121 l 0.002,0 c -0.362,0.016 -0.279,0.31 -0.327,0.523 0.137,0.236 0.272,0.471 0.408,0.707 0.296,0.378 0.448,0.933 1.155,0.737 0.321,-0.089 0.428,0.262 0.533,0.522 0.022,0.055 0.148,0.117 0.2,0.099 0.073,-0.026 0.143,-0.114 0.175,-0.191 0.164,-0.387 -0.128,-0.819 0.115,-1.229 0.369,0.355 0.728,0.7 1.085,1.044 0.075,-0.113 0.125,-0.276 0.232,-0.331 0.443,-0.227 0.575,-0.622 0.651,-1.067 0.049,-0.299 0.129,-0.59 0.221,-0.999 0.303,0.453 0.565,0.843 0.827,1.233" /><path
       inkscape:connector-curvature="0"
       id="path3373"
       style="fill:#acdf90;fill-opacity:1;fill-rule:evenodd;stroke:none"
       d="m 299.649,449.139 c 0.103,0.129 0.206,0.259 0.309,0.387 0.13,0.043 0.258,0.085 0.387,0.128 0.223,0.052 0.306,0.296 0.513,0.371 0.044,0.076 0.1,0.142 0.167,0.196 0.168,-0.002 0.264,-0.087 0.29,-0.252 0.033,-0.57 -0.39,-0.926 -0.64,-1.364 -0.27,-0.474 -0.708,-0.918 -0.305,-1.527 -0.789,-0.621 -0.81,-0.607 -1.161,0.75 -0.12,0.526 -0.15,1.024 0.44,1.311" /><path
       inkscape:connector-curvature="0"
       id="path3375"
       style="fill:#bbe496;fill-opacity:1;fill-rule:evenodd;stroke:none"
       d="m 301.243,450.086 -0.11,0.066 -0.108,0.07 c 0.087,0.16 0.174,0.319 0.261,0.479 l 0.061,0.013 c 0.325,0.012 0.441,-0.154 0.392,-0.461 -0.132,-0.154 -0.295,-0.216 -0.496,-0.167" /><path
       inkscape:connector-curvature="0"
       id="path3377"
       style="fill:#bbe496;fill-opacity:1;fill-rule:evenodd;stroke:none"
       d="m 300.858,450.025 c -0.108,-0.212 -0.25,-0.374 -0.513,-0.371 0.106,0.215 0.264,0.356 0.513,0.371" /><path
       inkscape:connector-curvature="0"
       id="path3379"
       style="fill:#bfe69e;fill-opacity:1;fill-rule:evenodd;stroke:none"
       d="m 309.767,451.068 c 0.199,-0.111 0.403,-0.182 0.625,-0.066 0.541,-0.28 1.089,0.007 1.633,-0.022 0.315,-0.196 0.631,-0.393 0.946,-0.59 0.043,-0.175 0.101,-0.352 0.09,-0.532 -0.024,-0.433 -0.17,-0.848 -0.612,-0.959 -0.497,-0.125 -0.434,0.485 -0.717,0.669 -0.479,0.526 -1.007,-0.136 -1.499,0.06 -0.122,0.038 -0.231,0.099 -0.33,0.178 -0.253,0.311 -0.352,0.665 -0.301,1.062 0.052,0.068 0.108,0.135 0.165,0.2" /><path
       inkscape:connector-curvature="0"
       id="path3381"
       style="fill:#b0e192;fill-opacity:1;fill-rule:evenodd;stroke:none"
       d="m 309.602,450.868 c 0.392,-0.208 0.286,-0.644 0.438,-0.961 -1.06,-1.219 -1.152,-1.215 -2.037,0.093 -0.104,0.36 -0.062,0.703 0.112,1.033 0.112,0.188 0.261,0.336 0.464,0.424 0.161,0.031 0.27,-0.031 0.325,-0.186 -0.044,-0.073 -0.1,-0.142 -0.131,-0.222 -0.043,-0.115 -0.067,-0.236 -0.098,-0.355 0.119,0.024 0.246,0.034 0.358,0.078 0.119,0.047 0.225,0.128 0.337,0.194 0.08,-0.025 0.157,-0.058 0.232,-0.098" /><path
       inkscape:connector-curvature="0"
       id="path3385"
       style="fill:#c6e9ab;fill-opacity:1;fill-rule:evenodd;stroke:none"
       d="m 311.907,449.74 c 0.185,0.082 0.346,0.082 0.437,-0.134 0.066,-0.164 -0.139,-0.351 0.045,-0.514 0.513,0.29 0.318,0.898 0.582,1.298 0.086,-0.039 0.172,-0.079 0.258,-0.118 0.062,-0.065 0.132,-0.12 0.209,-0.165 -0.006,-0.243 0.132,-0.404 0.306,-0.545 -0.037,-0.071 -0.076,-0.14 -0.117,-0.207 l 0.01,-0.007 c -0.123,-0.035 -0.246,-0.072 -0.367,-0.112 -0.055,-0.079 -0.106,-0.158 -0.161,-0.237 0.018,-0.226 0.311,-0.306 0.291,-0.55 -0.086,-0.153 -0.17,-0.306 -0.255,-0.46 -0.182,-0.336 -0.407,-0.603 -0.801,-0.724 -0.209,-0.065 -0.386,-0.24 -0.577,-0.366 -0.233,0.125 -0.467,0.247 -0.7,0.371 -0.066,0.269 0.025,0.518 0.092,0.77 0.124,0.291 0.277,0.571 0.334,0.887 0.086,0.297 0.086,0.64 0.414,0.813" /><path
       inkscape:connector-curvature="0"
       id="path3387"
       style="fill:#a9de85;fill-opacity:1;fill-rule:evenodd;stroke:none"
       d="m 305.153,454.246 c 0.11,-0.175 0.219,-0.349 0.327,-0.523 -0.3,-0.349 -0.306,-0.355 -0.587,0.036 0.087,0.162 0.173,0.324 0.26,0.487" /><path
       inkscape:connector-curvature="0"
       id="path3389"
       style="fill:#cdebb6;fill-opacity:1;fill-rule:evenodd;stroke:none"
       d="m 300.095,442.917 c 0.115,0.217 0.118,0.438 0.039,0.673 -0.102,0.305 0.022,0.637 0.254,0.736 0.678,0.29 0.916,1.006 1.47,1.401 0.457,-0.152 0.647,-0.74 1.2,-0.737 -0.376,-0.307 -0.63,-0.692 -0.745,-1.165 -0.49,0.266 -0.703,-0.081 -0.922,-0.414 -0.128,-0.032 -0.256,-0.065 -0.384,-0.096 -0.386,-0.003 -0.492,-0.335 -0.679,-0.574 -0.077,0.058 -0.155,0.117 -0.233,0.176" /><path
       inkscape:connector-curvature="0"
       id="path3391"
       style="fill:#94c78b;fill-opacity:1;fill-rule:evenodd;stroke:none"
       d="m 311.479,448.03 c -0.137,-0.253 -0.274,-0.506 -0.412,-0.759 -0.107,-0.12 -0.214,-0.241 -0.321,-0.36 -0.156,0.053 -0.312,0.105 -0.467,0.159 0.103,0.082 0.203,0.165 0.306,0.247 0.159,0.128 0.243,0.261 0.001,0.383 -0.235,0.118 -0.477,0.222 -0.714,0.332 0,-10e-4 -0.003,0.013 -0.003,0.013 -0.028,0.72 0.45,0.921 1.036,1.012 0.137,-0.002 0.265,-0.035 0.383,-0.103 0.298,-0.258 0.175,-0.606 0.191,-0.924" /><path
       inkscape:connector-curvature="0"
       id="path3393"
       style="fill:#c1e7a5;fill-opacity:1;fill-rule:evenodd;stroke:none"
       d="m 310.125,442.603 c 0.395,-0.054 0.534,0.491 0.943,0.403 -0.204,-0.304 -0.409,-0.607 -0.614,-0.911 -0.192,0.116 -0.343,0.26 -0.329,0.508" /><path
       inkscape:connector-curvature="0"
       id="path3395"
       style="fill:#9fd78c;fill-opacity:1;fill-rule:evenodd;stroke:none"
       d="m 311.084,448.928 c -0.445,-0.239 -1.008,-0.317 -1.215,-0.883 -0.317,0.427 -0.316,0.424 -0.716,0.19 -0.077,-0.046 -0.166,-0.079 -0.255,-0.091 -0.086,-0.012 -0.179,0.006 -0.27,0.012 0.094,0.216 0.157,0.43 -0.027,0.634 -0.244,0.271 -0.485,0.542 -0.727,0.812 -0.078,0.05 -0.156,0.1 -0.234,0.15 0.033,0.339 0.117,0.597 0.529,0.33 0.15,-0.232 0.295,-0.467 0.455,-0.69 0.082,-0.116 0.243,-0.197 0.341,-0.077 0.283,0.347 0.74,0.356 1.075,0.592 0.08,-0.048 0.158,-0.096 0.237,-0.145 0.395,-0.155 0.805,-0.297 0.807,-0.834" /><path
       inkscape:connector-curvature="0"
       id="path3397"
       style="fill:#7fb175;fill-opacity:1;fill-rule:evenodd;stroke:none"
       d="m 308.541,445.897 c -0.08,0.049 -0.16,0.098 -0.239,0.147 0.374,0.552 0.374,0.552 0.864,0.411 -0.209,-0.186 -0.417,-0.372 -0.625,-0.558" /><path
       inkscape:connector-curvature="0"
       id="path3399"
       style="fill:#a2d98e;fill-opacity:1;fill-rule:evenodd;stroke:none"
       d="m 301.628,450.185 c 0.023,0.239 -0.12,0.388 -0.281,0.529 0.196,0.329 0.291,0.758 0.78,0.802 -0.175,-0.312 -0.125,-0.573 0.178,-0.777 0.049,-0.125 0.08,-0.254 0.093,-0.387 -0.048,-0.079 -0.094,-0.157 -0.14,-0.237 -0.107,-0.438 -0.338,-0.253 -0.559,-0.112 -0.024,0.06 -0.047,0.121 -0.071,0.182" /><path
       inkscape:connector-curvature="0"
       id="path3401"
       style="fill:#8ec982;fill-opacity:1;fill-rule:evenodd;stroke:none"
       d="m 301.783,446.137 c -0.121,0.129 -0.31,0.239 -0.35,0.388 -0.147,0.554 -0.245,1.121 -0.361,1.683 -0.048,0.102 -0.042,0.171 0.017,0.208 0.06,0.038 0.103,0.048 0.13,0.031 0.377,-0.03 0.752,-0.049 0.844,-0.543 0.067,-0.365 0.176,-0.722 0.256,-1.084 0.102,-0.467 0.098,-0.468 -0.536,-0.683" /><path
       inkscape:connector-curvature="0"
       id="path3403"
       style="fill:#a2d98e;fill-opacity:1;fill-rule:evenodd;stroke:none"
       d="m 301.219,448.447 c -0.049,-0.08 -0.098,-0.159 -0.147,-0.239 -0.597,-0.263 -0.621,-0.302 -0.586,-0.952 0.029,-0.09 0.016,-0.155 -0.037,-0.195 -0.053,-0.039 -0.089,-0.053 -0.11,-0.039 -0.512,0.424 -0.339,0.932 -0.105,1.388 0.296,0.579 0.669,1.119 1.009,1.676 0.128,0.032 0.257,0.066 0.385,0.099 l 0.009,-0.029 c -0.08,-0.401 0.083,-0.69 0.414,-0.904 l 0,0.002 c -0.012,-0.377 -0.322,-0.273 -0.531,-0.33 -0.218,-0.042 -0.524,0.058 -0.529,-0.329 0.076,-0.048 0.152,-0.098 0.228,-0.148" /><path
       inkscape:connector-curvature="0"
       id="path3405"
       style="fill:#8ec982;fill-opacity:1;fill-rule:evenodd;stroke:none"
       d="m 302.051,449.252 c -0.127,0.055 -0.25,0.132 -0.383,0.162 -0.343,0.077 -0.315,0.271 -0.18,0.507 0.046,0.081 0.099,0.157 0.149,0.235 0.201,-0.106 0.404,-0.17 0.621,-0.041 0.173,-0.346 -0.05,-0.596 -0.207,-0.863" /><path
       inkscape:connector-curvature="0"
       id="path3407"
       style="fill:#8fc384;fill-opacity:1;fill-rule:evenodd;stroke:none"
       d="m 302.827,449.436 c 0.707,-0.537 0.707,-0.537 0.511,-1.305 -0.228,0.412 -0.609,0.764 -0.511,1.305" /><path
       inkscape:connector-curvature="0"
       id="path3409"
       style="fill:#8ec982;fill-opacity:1;fill-rule:evenodd;stroke:none"
       d="m 301.52,448.924 c 0.177,0.109 0.354,0.22 0.531,0.33 0.044,-0.473 -0.01,-0.507 -0.531,-0.33" /><path
       inkscape:connector-curvature="0"
       id="path3411"
       style="fill:#8ec982;fill-opacity:1;fill-rule:evenodd;stroke:none"
       d="m 300.991,448.595 c -0.049,0.471 0.007,0.506 0.529,0.329 -0.177,-0.109 -0.353,-0.219 -0.529,-0.329" /><path
       inkscape:connector-curvature="0"
       id="path3413"
       style="fill:#8fc384;fill-opacity:1;fill-rule:evenodd;stroke:none"
       d="m 302.789,450.443 c 0.341,-0.241 0.341,-0.241 0.092,-0.384 -0.03,0.128 -0.061,0.256 -0.092,0.384" /><path
       inkscape:connector-curvature="0"
       id="path3415"
       style="fill:#8ec982;fill-opacity:1;fill-rule:evenodd;stroke:none"
       d="m 302.398,450.352 c -0.031,0.129 -0.062,0.259 -0.093,0.387 0.082,-0.049 0.165,-0.098 0.247,-0.148 -0.052,-0.079 -0.102,-0.16 -0.154,-0.239" /><path
       inkscape:connector-curvature="0"
       id="path3417"
       style="fill:#b4e291;fill-opacity:1;fill-rule:evenodd;stroke:none"
       d="m 300.339,447.022 c 0.05,0.078 0.099,0.155 0.147,0.234 0.409,-0.574 0.41,-0.701 0.013,-1.17 -0.09,-0.107 -0.181,-0.212 -0.271,-0.316 -0.138,-0.186 -0.286,-0.369 -0.534,-0.388 -0.126,-0.008 -0.3,0.002 -0.377,0.079 -0.444,0.451 -0.504,1.627 -0.116,2.153 0.075,0.104 0.22,0.156 0.334,0.233 0.026,-0.177 0.053,-0.354 0.077,-0.532 0.065,-0.507 0.076,-0.513 0.727,-0.293" /><path
       inkscape:connector-curvature="0"
       id="path3419"
       style="fill:#7fbe73;fill-opacity:1;fill-rule:evenodd;stroke:none"
       d="m 304.914,450.561 c 0.208,0.383 0.416,0.765 0.624,1.148 -0.023,0.132 0.007,0.25 0.092,0.356 0.132,0.146 0.285,0.268 0.453,0.372 0.412,0.219 0.758,0.135 1.039,-0.232 -0.035,-0.918 0.182,-1.802 0.367,-2.69 -0.05,-0.08 -0.098,-0.158 -0.152,-0.235 -0.224,-0.034 -0.311,-0.29 -0.531,-0.331 -0.13,-0.018 -0.259,-0.036 -0.389,-0.052 -0.582,0.544 -1.075,1.113 -0.631,1.989 0.016,0.031 -0.093,0.134 -0.155,0.19 -0.015,0.015 -0.083,-0.014 -0.115,-0.038 -0.207,-0.15 -0.249,-0.508 -0.602,-0.477" /><path
       inkscape:connector-curvature="0"
       id="path3421"
       style="fill:#a9de85;fill-opacity:1;fill-rule:evenodd;stroke:none"
       d="m 307.084,452.059 c -0.574,0.338 -0.574,0.338 -1.017,-0.019 -0.123,-0.034 -0.246,-0.071 -0.367,-0.11 -0.051,-0.076 -0.106,-0.15 -0.161,-0.222 -0.13,-0.033 -0.26,-0.065 -0.39,-0.098 -0.152,0.473 -0.062,0.914 0.178,1.334 0.138,0.244 0.287,0.482 0.151,0.779 0.134,0.12 0.25,0.284 0.407,0.351 0.324,0.14 0.549,0.038 0.65,-0.272 0.056,-0.17 0.048,-0.36 0.093,-0.537 0.055,-0.215 0.228,-0.264 0.424,-0.241 0.314,0.036 0.581,0.276 0.925,0.199 0.339,-0.076 0.289,-0.272 0.179,-0.5 0.278,-0.392 1.096,-0.571 0.515,-1.303 -0.103,-0.161 -0.206,-0.32 -0.308,-0.479 -0.504,0.283 -0.885,0.709 -1.279,1.118" /><path
       inkscape:connector-curvature="0"
       id="path3423"
       style="fill:#8ec880;fill-opacity:1;fill-rule:evenodd;stroke:none"
       d="m 307.084,452.059 c 0.041,0.017 0.092,0.06 0.119,0.049 0.542,-0.233 1.045,-0.509 1.16,-1.167 -0.065,-0.287 -0.13,-0.574 -0.194,-0.859 -0.255,0.016 -0.408,-0.133 -0.529,-0.33 -0.051,-0.079 -0.101,-0.159 -0.151,-0.237 -0.23,0.157 -0.425,0.353 -0.421,0.645 0.005,0.308 -0.107,0.499 -0.389,0.622 -0.139,0.061 -0.178,0.238 -0.065,0.336 0.295,0.252 0.288,0.641 0.47,0.941" /><path
       inkscape:connector-curvature="0"
       id="path3425"
       style="fill:#8ec880;fill-opacity:1;fill-rule:evenodd;stroke:none"
       d="m 306.806,448.949 c 0.129,0.189 0.279,0.342 0.531,0.331 -0.124,-0.195 -0.274,-0.35 -0.531,-0.331" /><path
       inkscape:connector-curvature="0"
       id="path3427"
       style="fill:#b5e28d;fill-opacity:1;fill-rule:evenodd;stroke:none"
       d="m 308.671,451.42 c 0.04,0.329 -0.04,0.615 -0.297,0.84 -0.141,0.123 -0.217,0.275 -0.218,0.463 0.185,0.011 0.367,0.02 0.551,0.031 0.256,0.016 0.562,0.232 0.736,-0.116 0.143,-0.282 -0.03,-0.535 -0.173,-0.774 -0.121,-0.199 -0.244,-0.396 -0.366,-0.593 -0.078,0.05 -0.156,0.099 -0.233,0.149" /><path
       inkscape:connector-curvature="0"
       id="path3429"
       style="fill:#b0e192;fill-opacity:1;fill-rule:evenodd;stroke:none"
       d="m 311.084,448.928 c -0.27,0.279 -0.538,0.557 -0.807,0.834 0.21,0.075 0.429,0.134 0.63,0.228 0.501,0.234 0.497,0.241 1,-0.25 -0.062,-0.286 -0.125,-0.572 -0.188,-0.858 -0.11,-0.122 -0.244,-0.151 -0.397,-0.094 -0.079,0.049 -0.158,0.096 -0.238,0.14" /><path
       inkscape:connector-curvature="0"
       id="path3431"
       style="fill:#9fd78c;fill-opacity:1;fill-rule:evenodd;stroke:none"
       d="m 311.322,448.788 c 0.131,0.032 0.264,0.064 0.397,0.094 0.158,-0.351 -0.058,-0.597 -0.24,-0.852 -0.152,0.232 -0.208,0.485 -0.157,0.758" /><path
       inkscape:connector-curvature="0"
       id="path3433"
       style="fill:#9bcd8f;fill-opacity:1;fill-rule:evenodd;stroke:none"
       d="m 305.7,451.93 c 0.122,0.036 0.244,0.074 0.367,0.11 -0.123,-0.036 -0.245,-0.074 -0.367,-0.11" /><flowRoot
       xml:space="preserve"
       id="flowRoot33983"
       style="font-size:40px;font-style:normal;font-weight:normal;line-height:125%;letter-spacing:0px;word-spacing:0px;fill:#000000;fill-opacity:1;stroke:none;font-family:Sans"><flowRegion
         id="flowRegion33985"><rect
           id="rect33987"
           width="177.37978"
           height="105.69261"
           x="310.64438"
           y="253.7162" /></flowRegion><flowPara
         id="flowPara33989"></flowPara></flowRoot></g></svg>