<?xml version="1.0" encoding="UTF-8" standalone="no"?>
<!-- Created with Inkscape (http://www.inkscape.org/) -->

<svg
   xmlns:dc="http://purl.org/dc/elements/1.1/"
   xmlns:cc="http://creativecommons.org/ns#"
   xmlns:rdf="http://www.w3.org/1999/02/22-rdf-syntax-ns#"
   xmlns:svg="http://www.w3.org/2000/svg"
   xmlns="http://www.w3.org/2000/svg"
   xmlns:sodipodi="http://sodipodi.sourceforge.net/DTD/sodipodi-0.dtd"
   xmlns:inkscape="http://www.inkscape.org/namespaces/inkscape"
   width="441.76971"
   height="76.755653"
   id="svg2"
   version="1.1"
   inkscape:version="0.48.4 r9939"
   sodipodi:docname="Новый документ 1">
  <defs
     id="defs4" />
  <sodipodi:namedview
     id="base"
     pagecolor="#ffffff"
     bordercolor="#666666"
     borderopacity="1.0"
     inkscape:pageopacity="0.0"
     inkscape:pageshadow="2"
     inkscape:zoom="0.98994949"
     inkscape:cx="474.10674"
     inkscape:cy="19.242385"
     inkscape:document-units="px"
     inkscape:current-layer="layer1"
     showgrid="false"
     fit-margin-top="0"
     fit-margin-left="0"
     fit-margin-right="0"
     fit-margin-bottom="0"
     inkscape:window-width="1857"
     inkscape:window-height="1056"
     inkscape:window-x="63"
     inkscape:window-y="24"
     inkscape:window-maximized="1" />
  <metadata
     id="metadata7">
    <rdf:RDF>
      <cc:Work
         rdf:about="">
        <dc:format>image/svg+xml</dc:format>
        <dc:type
           rdf:resource="http://purl.org/dc/dcmitype/StillImage" />
        <dc:title></dc:title>
      </cc:Work>
    </rdf:RDF>
  </metadata>
  <g
     inkscape:label="Layer 1"
     inkscape:groupmode="layer"
     id="layer1"
     transform="translate(-50.543712,-323.12179)">
    <path
       inkscape:connector-curvature="0"
       id="path674"
       style="fill:#f06f7c;fill-opacity:1;fill-rule:nonzero;stroke:none"
       d="m 321.11085,385.64478 c 8.1075,-0.555 16.24875,-0.2875 24.36625,-0.11875 5.3975,0.11375 10.835,0.33 16.20375,-0.385 -0.24,0.0325 -0.47875,0.0625 -0.71875,0.095 0.77125,-0.1025 1.54,-0.2175 2.3125,-0.31875 -0.2475,0.0337 -0.4925,0.0675 -0.74,0.0987 2.6125,-0.355 5.185,-0.97625 7.62125,-1.9925 -0.235,0.0962 -0.4725,0.19875 -0.70875,0.295 0.39875,-0.17 0.79625,-0.3475 1.18625,-0.53875 0.6,-0.29 1.215,-0.53625 1.8275,-0.795 -0.235,0.0987 -0.47,0.20125 -0.70625,0.295 1.15625,-0.48875 2.2725,-1.0675 3.3375,-1.735 0.56125,-0.35375 1.14625,-0.66375 1.70625,-1.0175 0.40875,-0.2575 0.81625,-0.58125 1.30625,-0.665 0.3,-0.0512 0.6025,-0.11375 0.90125,-0.18125 0.5525,-0.1175 1.1075,-0.009 1.51875,0.40375 0.42,0.42125 0.50375,0.95625 0.40125,1.51875 -0.0913,0.50125 -0.1525,1.07625 -0.4225,1.515 -0.3075,0.5075 -0.725,0.97375 -1.1075,1.43125 -0.535,0.63875 -1.11,1.20125 -1.75625,1.73 -0.77625,0.63875 -1.5825,1.24625 -2.41875,1.80375 -0.315,0.2075 -0.63875,0.4075 -0.96125,0.6025 -0.53875,0.32125 -1.165,0.525 -1.7425,0.76125 -3.07875,1.255 -6.40875,1.81875 -9.71,2.065 -1.56625,0.115 -3.1775,0.0138 -4.74125,-0.0825 -1.615,-0.10125 -3.2225,-0.26875 -4.82625,-0.465 -1.755,-0.21625 -3.50625,-0.4625 -5.255,-0.72125 -0.7925,-0.1175 -1.58875,-0.235 -2.3825,-0.345 -0.38,-0.055 -0.76,-0.10875 -1.13875,-0.165 -0.19125,-0.025 -0.37875,-0.0525 -0.57125,-0.0787 -0.03,-0.005 -0.06,-0.009 -0.0937,-0.0138 0.34375,0.0462 0.27125,0.035 -0.21875,-0.03 -0.16625,-0.0225 -0.3325,-0.045 -0.4975,-0.065 -7.33,-0.995 -14.57375,-2.17375 -21.97125,-2.68875 -0.1375,-0.009 -0.1375,-0.2025 0,-0.2125 l 0,0" />
    <path
       inkscape:connector-curvature="0"
       id="path676"
       style="fill:#f06f7c;fill-opacity:1;fill-rule:nonzero;stroke:none"
       d="m 338.1546,389.90603 c 4.3125,1.045 8.51,2.5275 12.70875,3.95125 2.7925,0.9485 5.5875,1.95725 8.5,2.47 -0.12875,-0.0225 -0.25875,-0.045 -0.38875,-0.0674 0.42,0.0738 0.8375,0.14112 1.25625,0.21337 -0.13375,-0.0225 -0.2675,-0.0474 -0.4025,-0.0699 1.41875,0.24613 2.8625,0.34375 4.2975,0.21875 -0.1375,0.009 -0.2775,0.0249 -0.4175,0.0351 0.23625,-0.02 0.4725,-0.0488 0.70625,-0.0825 0.36,-0.0528 0.7225,-0.0815 1.08375,-0.11375 -0.14,0.0122 -0.27875,0.0274 -0.4175,0.0376 0.68375,-0.0655 1.36,-0.18262 2.02625,-0.3555 0.34875,-0.0899 0.70625,-0.15625 1.055,-0.2485 0.255,-0.065 0.52,-0.1675 0.79,-0.13137 0.16375,0.0225 0.3325,0.04 0.5,0.0553 0.305,0.0312 0.5775,0.17862 0.72375,0.45987 0.1475,0.28863 0.105,0.58113 -0.0412,0.85988 -0.13,0.24275 -0.25625,0.53025 -0.46875,0.71637 -0.245,0.21388 -0.54,0.38863 -0.81375,0.56388 -0.38375,0.24375 -0.77625,0.441 -1.20125,0.61137 -0.50625,0.20363 -1.0275,0.38863 -1.55625,0.541 -0.19875,0.0576 -0.39875,0.105 -0.59875,0.15388 -0.3325,0.0785 -0.69375,0.0825 -1.0325,0.11125 -1.81125,0.146 -3.63625,-0.10888 -5.3975,-0.52488 -0.835,-0.19775 -1.65625,-0.51662 -2.455,-0.82525 -0.82375,-0.31875 -1.635,-0.66987 -2.4375,-1.03512 -0.87875,-0.40375 -1.74875,-0.81975 -2.6175,-1.24125 -0.39375,-0.19238 -0.78875,-0.38475 -1.185,-0.57225 -0.18875,-0.0928 -0.3775,-0.18263 -0.565,-0.27538 -0.0962,-0.0449 -0.18875,-0.0884 -0.285,-0.13475 -0.0138,-0.006 -0.03,-0.0136 -0.045,-0.0249 0.17,0.0835 0.135,0.0635 -0.11,-0.0489 -0.0825,-0.0385 -0.16625,-0.08 -0.2475,-0.11612 -3.65375,-1.72875 -7.2325,-3.53375 -10.99875,-5.02 -0.0713,-0.0275 -0.0387,-0.13 0.035,-0.11125 l 0,0" />
    <path
       inkscape:connector-curvature="0"
       id="path678"
       style="fill:#f06f7c;fill-opacity:1;fill-rule:nonzero;stroke:none"
       d="m 226.36085,385.64478 c -8.105,-0.555 -16.2475,-0.2875 -24.36625,-0.11875 -5.3975,0.11375 -10.83375,0.33 -16.2025,-0.385 0.24,0.0325 0.47875,0.0625 0.71875,0.095 -0.7725,-0.1025 -1.54125,-0.2175 -2.3125,-0.31875 0.24625,0.0337 0.4925,0.0675 0.74,0.0987 -2.61375,-0.355 -5.185,-0.97625 -7.62125,-1.9925 0.235,0.0962 0.4725,0.19875 0.71,0.295 -0.40125,-0.17 -0.7975,-0.3475 -1.18875,-0.53875 -0.59875,-0.29 -1.21375,-0.53625 -1.8275,-0.795 0.23625,0.0987 0.47125,0.20125 0.70625,0.295 -1.15625,-0.48875 -2.27125,-1.0675 -3.3375,-1.735 -0.56125,-0.35375 -1.14625,-0.66375 -1.70625,-1.0175 -0.4075,-0.2575 -0.81625,-0.58125 -1.305,-0.665 -0.3,-0.0512 -0.60375,-0.11375 -0.9025,-0.18125 -0.55125,-0.1175 -1.1075,-0.009 -1.5175,0.40375 -0.42125,0.42125 -0.50375,0.95625 -0.40125,1.51875 0.0913,0.50125 0.1525,1.07625 0.42125,1.515 0.3075,0.5075 0.72625,0.97375 1.1075,1.43125 0.535,0.63875 1.11125,1.20125 1.7575,1.73 0.77625,0.63875 1.5825,1.24625 2.41875,1.80375 0.315,0.2075 0.63875,0.4075 0.96,0.6025 0.53875,0.32125 1.165,0.525 1.74375,0.76125 3.0775,1.255 6.4075,1.81875 9.70875,2.065 1.5675,0.115 3.17875,0.0138 4.7425,-0.0825 1.61375,-0.10125 3.2225,-0.26875 4.82625,-0.465 1.75625,-0.21625 3.50625,-0.4625 5.255,-0.72125 0.7925,-0.1175 1.5875,-0.235 2.3825,-0.345 0.37875,-0.055 0.75875,-0.10875 1.1375,-0.165 0.19375,-0.025 0.38,-0.0525 0.57125,-0.0787 0.0312,-0.005 0.0625,-0.009 0.095,-0.0138 -0.34375,0.0462 -0.2725,0.035 0.2175,-0.03 0.1675,-0.0225 0.3325,-0.045 0.49625,-0.065 7.3325,-0.995 14.575,-2.17375 21.9725,-2.68875 0.1375,-0.009 0.1375,-0.2025 0,-0.2125 l 0,0" />
    <path
       inkscape:connector-curvature="0"
       id="path680"
       style="fill:#f06f7c;fill-opacity:1;fill-rule:nonzero;stroke:none"
       d="m 209.31835,389.90603 c -4.3125,1.045 -8.50875,2.5275 -12.71,3.95125 -2.79125,0.9485 -5.5875,1.95725 -8.5,2.47 0.13,-0.0225 0.26,-0.045 0.39,-0.0674 -0.42,0.0738 -0.8375,0.14112 -1.2575,0.21337 0.135,-0.0225 0.26875,-0.0474 0.4025,-0.0699 -1.42,0.24613 -2.86125,0.34375 -4.2975,0.21875 0.13875,0.009 0.27875,0.0249 0.4175,0.0351 -0.23625,-0.02 -0.4725,-0.0488 -0.7075,-0.0825 -0.35875,-0.0528 -0.72,-0.0815 -1.0825,-0.11375 0.14,0.0122 0.27875,0.0274 0.4175,0.0376 -0.68375,-0.0655 -1.36,-0.18262 -2.02375,-0.3555 -0.35125,-0.0899 -0.7075,-0.15625 -1.0575,-0.2485 -0.25375,-0.065 -0.52,-0.1675 -0.78875,-0.13137 -0.165,0.0225 -0.3325,0.04 -0.5,0.0553 -0.305,0.0312 -0.5775,0.17862 -0.72375,0.45987 -0.15,0.28863 -0.10625,0.58113 0.0413,0.85988 0.13,0.24275 0.25625,0.53025 0.46875,0.71637 0.245,0.21388 0.54,0.38863 0.8125,0.56388 0.38375,0.24375 0.77625,0.441 1.20125,0.61137 0.50875,0.20363 1.02875,0.38863 1.5575,0.541 0.19625,0.0576 0.39875,0.105 0.59875,0.15388 0.3325,0.0785 0.6925,0.0825 1.03125,0.11125 1.81125,0.146 3.63875,-0.10888 5.3975,-0.52488 0.83625,-0.19775 1.65625,-0.51662 2.45625,-0.82525 0.82375,-0.31875 1.635,-0.66987 2.43625,-1.03512 0.87875,-0.40375 1.75,-0.81975 2.6175,-1.24125 0.395,-0.19238 0.78875,-0.38475 1.185,-0.57225 0.18875,-0.0928 0.3775,-0.18263 0.565,-0.27538 0.0962,-0.0449 0.19,-0.0884 0.285,-0.13475 0.015,-0.006 0.03,-0.0136 0.0463,-0.0249 -0.17125,0.0835 -0.135,0.0635 0.11,-0.0489 0.0813,-0.0385 0.16375,-0.08 0.24625,-0.11612 3.655,-1.72875 7.2325,-3.53375 11,-5.02 0.07,-0.0275 0.0375,-0.13 -0.035,-0.11125 l 0,0" />
    <path
       inkscape:connector-curvature="0"
       id="path682"
       style="fill:#f06f7c;fill-opacity:1;fill-rule:nonzero;stroke:none"
       d="m 452.0421,341.96728 c -2.46,-2.62125 -5.49625,-4.58625 -8.61125,-6.27 -3.12875,-1.675 -6.445,-2.9675 -9.8425,-3.87 -3.4075,-0.87125 -6.89125,-1.375 -10.37625,-1.425 -3.485,-0.0575 -6.95875,0.32125 -10.34,1.08 -3.3925,0.72125 -6.67625,1.8975 -9.8325,3.32625 -1.5975,0.67625 -3.11,1.5425 -4.645,2.3475 -1.47625,0.9225 -3.00375,1.7475 -4.41375,2.77875 l -2.145,1.48625 -2.07625,1.5925 c -1.41,1.02125 -2.69375,2.22125 -4.0375,3.3325 -1.315,1.15 -2.56125,2.385 -3.845,3.57 l -3.69625,3.8175 -3.73875,3.87875 c -1.3275,1.27375 -2.6425,2.5775 -3.99,3.83125 -2.725,2.4425 -5.51375,4.82625 -8.44875,7.0425 -1.4625,1.1125 -2.9375,2.21125 -4.47125,3.2375 -1.49875,1.07 -3.0725,2.035 -4.635,3.01875 -3.1625,1.90625 -6.40375,3.7125 -9.79375,5.23875 -6.74875,3.10375 -13.97375,5.29375 -21.41625,6.33375 -3.72125,0.51125 -7.495,0.7475 -11.28375,0.5925 -1.89375,-0.0625 -3.79,-0.23125 -5.68875,-0.50125 -0.95,-0.13125 -1.9,-0.30125 -2.85375,-0.4975 -0.9875,-0.21875 -1.83875,-0.41625 -2.995,-0.79375 l 0.495,0.12875 c -3.69375,-0.7 -7.3025,-1.95625 -10.58,-3.81875 -3.29125,-1.835 -6.26125,-4.23125 -8.76125,-7.04 -2.51625,-2.79375 -4.535,-6.02375 -6.005,-9.47625 -1.49,-3.45125 -2.3325,-7.17 -2.5775,-10.91125 -0.19875,-3.7675 0.1275,-7.47125 1.18125,-11.15875 1.06875,-3.67375 2.9175,-7.1 5.3725,-10.00625 2.45375,-2.89875 5.4875,-5.3075 8.895,-6.955 3.3975,-1.66375 7.13875,-2.59375 10.89625,-2.74 3.74875,-0.11625 7.51625,0.41 11.06375,1.97875 3.5025,1.52 6.545,4.01 8.77,7.0525 2.2175,3.05125 3.65125,6.65125 4.0675,10.36375 0.39375,3.715 -0.0263,7.4825 -1.68375,10.92625 -1.64875,3.38 -4.40375,6.1525 -7.69,7.80875 -3.27625,1.67625 -7.0825,2.24625 -10.62875,1.56125 -1.75,-0.3325 -3.5125,-0.99125 -5.0175,-1.98125 -1.50875,-0.98375 -2.8075,-2.26125 -3.78875,-3.73875 -1.975,-2.9525 -2.63375,-6.6625 -1.85125,-9.9975 -0.4675,3.39875 0.545,6.8825 2.625,9.43625 1.02625,1.285 2.29375,2.36 3.715,3.13125 1.42,0.77875 2.9525,1.22375 4.57375,1.41125 3.215,0.34625 6.47875,-0.36625 9.1925,-1.98125 2.72125,-1.6 4.86125,-4.0875 6.03,-6.93625 1.155,-2.7975 1.40875,-6.10375 0.905,-9.135 -0.5,-3.0625 -1.8375,-5.9525 -3.7575,-8.3325 -1.94375,-2.36125 -4.44625,-4.2425 -7.255,-5.34875 -2.7525,-1.1175 -5.9425,-1.465 -8.995,-1.25125 -6.14375,0.43125 -11.94625,3.58 -15.74375,8.29875 -1.9025,2.355 -3.30625,5.10625 -4.08125,8.01125 -0.77,2.90125 -0.99375,6.10375 -0.7575,9.145 0.28875,3.06625 1.01625,6.09125 2.24375,8.91125 1.22625,2.8175 2.895,5.45125 4.97125,7.7175 2.05875,2.27875 4.4925,4.2125 7.18125,5.685 2.675,1.4975 5.6125,2.49125 8.62875,3.04625 l 0.20625,0.0387 0.28875,0.0913 c 0.55,0.17625 1.44625,0.395 2.21,0.56 0.80125,0.1675 1.61625,0.32125 2.4425,0.44125 1.65125,0.2475 3.32875,0.41125 5.02,0.4775 3.37875,0.165 6.79375,-0.025 10.17875,-0.46375 3.38625,-0.4475 6.74625,-1.16875 10.04875,-2.1225 3.31,-0.93 6.53125,-2.18625 9.705,-3.555 3.18375,-1.35 6.25625,-2.97875 9.27125,-4.70875 1.49125,-0.8975 2.99625,-1.77375 4.43625,-2.76 1.4725,-0.935 2.895,-1.95125 4.30875,-2.98 2.8375,-2.045 5.5525,-4.26875 8.2175,-6.55625 l 3.9,-3.48375 3.8625,-3.73375 3.92875,-3.7775 c 1.3925,-1.20125 2.74125,-2.445 4.16875,-3.60625 1.4575,-1.12625 2.8475,-2.3275 4.38,-3.3625 l 2.25625,-1.5975 2.35125,-1.46625 c 1.5425,-1.01125 3.21875,-1.8225 4.83125,-2.7175 1.68,-0.78375 3.33125,-1.6175 5.075,-2.2625 3.44375,-1.355 7.0125,-2.445 10.68125,-3.025 7.32125,-1.185 14.91,-0.62625 21.8425,1.75125 3.45625,1.2075 6.7625,2.7925 9.81875,4.75 3.0125,2 5.8975,4.275 8.1125,7.11625" />
    <path
       inkscape:connector-curvature="0"
       id="path684"
       style="fill:#f06f7c;fill-opacity:1;fill-rule:nonzero;stroke:none"
       d="m 94.45548,341.96728 c 2.216375,-2.84125 5.09825,-5.11625 8.11138,-7.11625 3.05662,-1.9575 6.36275,-3.54375 9.81937,-4.75 6.93263,-2.3775 14.5215,-2.93625 21.84325,-1.75125 3.668,0.58 7.23675,1.67125 10.68113,3.0275 1.74262,0.64375 3.39262,1.47875 5.07425,2.26125 1.61074,0.895 3.28762,1.70625 4.82949,2.71875 l 2.3515,1.465 2.25625,1.5975 c 1.5325,1.035 2.9225,2.2375 4.38125,3.3625 1.42625,1.16125 2.775,2.405 4.16875,3.60625 l 3.92625,3.7775 3.865,3.73375 3.9,3.48375 c 2.66375,2.28625 5.37875,4.51125 8.21625,6.5575 1.415,1.02875 2.83625,2.04375 4.30875,2.9775 1.44125,0.98625 2.94625,1.8625 4.43625,2.76 3.0175,1.73 6.08875,3.35875 9.2725,4.70875 3.1725,1.36875 6.39375,2.625 9.70375,3.555 3.3025,0.95375 6.6625,1.675 10.04875,2.12125 3.385,0.44 6.8,0.63 10.17875,0.465 1.69,-0.0662 3.37,-0.23 5.02,-0.4775 0.82625,-0.12 1.64125,-0.27375 2.4425,-0.44125 0.76375,-0.165 1.66,-0.38375 2.21,-0.56 l 0.28875,-0.0913 0.20625,-0.0387 c 3.01625,-0.555 5.95375,-1.54875 8.63,-3.045 2.6875,-1.47125 5.1225,-3.405 7.18125,-5.685 2.075,-2.2675 3.745,-4.9 4.97125,-7.71875 1.2275,-2.82 1.955,-5.84375 2.2425,-8.91 0.23625,-3.04125 0.0138,-6.245 -0.75625,-9.14625 -0.775,-2.905 -2.17875,-5.65625 -4.08125,-8.01125 -3.79875,-4.71875 -9.60125,-7.8675 -15.745,-8.29875 -3.0525,-0.21375 -6.2425,0.13375 -8.995,1.25125 -2.81,1.1075 -5.3125,2.9875 -7.25625,5.34875 -1.92,2.3825 -3.25625,5.27 -3.75625,8.3325 -0.50375,3.03375 -0.25,6.3375 0.905,9.13625 1.17,2.8475 3.31,5.335 6.0325,6.935 2.7125,1.615 5.9775,2.3275 9.1925,1.98125 1.62125,-0.1875 3.15375,-0.63125 4.57375,-1.41125 1.42125,-0.77 2.68875,-1.84625 3.715,-3.13125 2.08125,-2.55375 3.0925,-6.0375 2.625,-9.43625 0.7825,3.335 0.125,7.045 -1.85125,9.9975 -0.98125,1.4775 -2.28,2.755 -3.78875,3.73875 -1.50625,0.99 -3.26625,1.64875 -5.0175,1.98125 -3.5475,0.685 -7.35375,0.115 -10.63,-1.56125 -3.28625,-1.65625 -6.04,-4.4275 -7.69,-7.8075 -1.66,-3.44375 -2.08,-7.2125 -1.68625,-10.9275 0.41625,-3.7125 1.85,-7.3125 4.06875,-10.3625 2.225,-3.04375 5.26625,-5.53375 8.77,-7.05375 3.54625,-1.5675 7.315,-2.095 11.06375,-1.97875 3.7575,0.14625 7.49875,1.075 10.89625,2.74 3.4075,1.6475 6.44125,4.05625 8.895,6.955 2.455,2.9075 4.30375,6.3325 5.3725,10.00625 1.055,3.6875 1.38125,7.3925 1.1825,11.15875 -0.24625,3.74125 -1.0875,7.46 -2.5775,10.9125 -1.47125,3.45375 -3.48875,6.68125 -6.00625,9.4775 -2.5,2.8075 -5.46875,5.20375 -8.76125,7.0375 -3.2775,1.8625 -6.88625,3.11875 -10.58,3.81875 l 0.49375,-0.12875 c -1.155,0.3775 -2.00625,0.575 -2.99375,0.79375 -0.95375,0.19625 -1.90375,0.36625 -2.85375,0.4975 -1.8975,0.27 -3.795,0.43875 -5.68875,0.50125 -3.78875,0.155 -7.56375,-0.0813 -11.285,-0.5925 -7.44,-1.04125 -14.6675,-3.23125 -21.415,-6.33375 -3.39,-1.52625 -6.63,-3.3325 -9.7925,-5.23625 -1.5625,-0.985 -3.13625,-1.95125 -4.63625,-3.02125 -1.5325,-1.02625 -3.00875,-2.125 -4.47125,-3.2375 -2.935,-2.215 -5.72375,-4.6 -8.44875,-7.04125 -1.3475,-1.2525 -2.66125,-2.55625 -3.99,-3.83125 l -3.74,-3.87875 -3.695,-3.8175 c -1.28375,-1.185 -2.53,-2.42125 -3.845,-3.57 -1.3425,-1.11125 -2.6275,-2.3125 -4.0375,-3.3325 l -2.07625,-1.5925 -2.1445,-1.48625 c -1.40962,-1.03125 -2.93699,-1.85625 -4.41412,-2.78 -1.53412,-0.80375 -3.04725,-1.67 -4.6435,-2.3475 -3.15675,-1.4275 -6.44037,-2.605 -9.8325,-3.32625 -3.38187,-0.75875 -6.856,-1.1375 -10.34087,-1.08 -3.48438,0.05 -6.96775,0.55375 -10.376,1.42375 -3.39688,0.90375 -6.71188,2.19625 -9.84175,3.87 -3.114255,1.68375 -6.15038,3.65 -8.61088,6.27125" />
    <path
       inkscape:connector-curvature="0"
       id="path686"
       style="fill:#f06f7c;fill-opacity:1;fill-rule:nonzero;stroke:none"
       d="m 445.84335,336.01603 c -6.3125,0.8875 -11.93625,2.90625 -17.17125,5.0775 -5.695,2.35125 -10.9175,4.9825 -15.91625,7.44875 -8.5175,4.165 -16.4125,8.79875 -24.5875,12.2775 -8.35875,3.51 -18.7825,3.625 -27.64375,2.4275 -0.0712,-0.01 -0.1,0.1075 -0.0275,0.13 4.425,1.43125 8.91375,2.345 13.55375,2.4975 4.52,0.16 8.89,-0.6 13.38375,-0.855 4.4575,-0.24875 9.065,-0.71 13.42875,-2.055 4.50875,-1.43625 9.05875,-3.3575 13.71125,-5.65375 4.98375,-2.48125 9.85,-5.73875 16.275,-8.86375 6.28875,-3.06375 13.54375,-5.86 21.62,-6.6575 2.7375,-0.24875 5.58,-0.305 8.44625,0.006 0.37125,0.0238 0.7325,0.115 1.1125,0.13625 0.3925,0.0612 1.115,0.1875 1.3875,0.21625 1.85,0.315 3.6925,0.825 5.51375,1.4425 6.57,2.295 12.59125,6.61125 16.24,12.56375 0.69625,1.1425 1.305,2.3525 1.81875,3.58625 0.2025,0.495 0.3875,0.99375 0.56125,1.4875 0.0487,0.25875 0.12625,0.40875 0.18125,0.545 0.0138,0.0962 0.0537,0.20375 0.1025,0.33125 0.74375,2.495 1.03875,5.175 0.84875,7.8 -0.35125,4.76125 -1.665,8.52 -5.325,12.2325 -3.04375,3.06625 -8.09125,5.36875 -13.145,4.5475 -4.4225,-0.7275 -8.6725,-4.0075 -9.9425,-8.34 -1.47625,-5.35125 5.81625,-13.45 10.8525,-9.29875 1.2,1.00375 2.24125,2.70375 1.75125,4.5475 -0.005,-0.23625 -0.0737,-0.4625 -0.15875,-0.67375 -0.70625,-1.84875 -2.15125,-2.28875 -3.5075,-2.24 -2.14,0.0713 -3.52,2.0475 -3.23375,3.8025 0.24875,1.375 1.25,2.305 2.2525,2.65625 0.0562,-0.0387 0.12125,0.0312 0.16375,0.0662 0.0312,0.0263 0.11625,-0.0288 0.13375,0.0263 0.295,0.0138 0.56,0.15375 0.835,0.10625 6.34125,0.37875 5.305,-8.385 1.99875,-10.385 -3.49125,-2.11625 -7.89375,-0.98875 -10.43875,1.575 -3.205,3.25625 -3.64,8.59375 -2.03375,12.2525 2.6075,6.14125 9.33125,8.885 15.16,8.37875 6.92875,-0.57375 12.915,-5.56125 15.7475,-11.0375 6.58,-12.83 -0.7475,-27.57625 -10.15625,-34.68 -10.645,-8.01625 -23.04875,-8.9225 -33.7925,-7.425" />
    <path
       inkscape:connector-curvature="0"
       id="path688"
       style="fill:#f06f7c;fill-opacity:1;fill-rule:nonzero;stroke:none"
       d="m 97.013105,336.01603 c 6.313505,0.8875 11.938005,2.90625 17.172375,5.0775 5.69538,2.35125 10.9175,4.9825 15.917,7.44875 8.51813,4.165 16.41113,8.79875 24.5865,12.2775 8.35937,3.51 18.78312,3.625 27.64312,2.4275 0.0713,-0.01 0.10125,0.1075 0.0275,0.13 -4.4225,1.43125 -8.9125,2.345 -13.5525,2.4975 -4.52,0.16 -8.89125,-0.6 -13.38375,-0.855 -4.459,-0.24875 -9.06599,-0.71 -13.42824,-2.055 -4.50888,-1.43625 -9.05963,-3.3575 -13.7115,-5.65375 -4.98488,-2.48125 -9.8505,-5.73875 -16.27588,-8.86375 -6.2875,-3.06375 -13.542875,-5.86 -21.619125,-6.6575 -2.73875,-0.24875 -5.5805,-0.305 -8.44675,0.006 -0.371625,0.0238 -0.731,0.115 -1.11225,0.13625 -0.392625,0.0612 -1.11475,0.1875 -1.38825,0.21625 -1.848125,0.315 -3.692875,0.825 -5.513625,1.4425 -6.568875,2.295 -12.592375,6.61125 -16.23925,12.56375 -0.696375,1.1425 -1.306625,2.3525 -1.818375,3.58625 -0.203625,0.495 -0.38825,0.99375 -0.5625,1.4875 -0.04838,0.25875 -0.126,0.40875 -0.18025,0.545 -0.01412,0.0962 -0.05363,0.20375 -0.103,0.33125 -0.744125,2.495 -1.0385,5.175 -0.849625,7.8 0.352125,4.76125 1.666,8.52 5.32525,12.2325 3.043875,3.06625 8.09075,5.36875 13.145,4.5475 4.423375,-0.7275 8.673375,-4.0075 9.942875,-8.34 1.475125,-5.35125 -5.817375,-13.45 -10.8535,-9.29875 -1.19875,1.00375 -2.24025,2.70375 -1.7505,4.5475 0.0064,-0.23625 0.07325,-0.4625 0.15825,-0.67375 0.707,-1.84875 2.15125,-2.28875 3.50825,-2.24 2.139125,0.0713 3.5205,2.0475 3.234375,3.8025 -0.2505,1.375 -1.251,2.305 -2.2525,2.65625 -0.05613,-0.0387 -0.1225,0.0312 -0.1635,0.0662 -0.03075,0.0263 -0.11675,-0.0288 -0.13375,0.0263 -0.294,0.0138 -0.560625,0.15375 -0.8355,0.10625 -6.341375,0.37875 -5.305625,-8.385 -1.9995,-10.385 3.491625,-2.11625 7.8945,-0.98875 10.439375,1.575 3.205125,3.25625 3.64025,8.59375 2.03475,12.2525 -2.607875,6.14125 -9.332,8.885 -15.160625,8.37875 -6.92875,-0.57375 -12.915125,-5.56125 -15.748625,-11.0375 -6.58,-12.83 0.748625,-27.57625 10.15675,-34.68 10.644625,-8.01625 23.048375,-8.9225 33.7915,-7.425" />
  </g>
</svg>
