<?xml version="1.0" encoding="UTF-8" standalone="no"?>
<!-- Created with Inkscape (http://www.inkscape.org/) -->

<svg
   xmlns:dc="http://purl.org/dc/elements/1.1/"
   xmlns:cc="http://creativecommons.org/ns#"
   xmlns:rdf="http://www.w3.org/1999/02/22-rdf-syntax-ns#"
   xmlns:svg="http://www.w3.org/2000/svg"
   xmlns="http://www.w3.org/2000/svg"
   xmlns:sodipodi="http://sodipodi.sourceforge.net/DTD/sodipodi-0.dtd"
   xmlns:inkscape="http://www.inkscape.org/namespaces/inkscape"
   id="svg2"
   version="1.1"
   inkscape:version="0.48.4 r9939"
   width="565.2688"
   height="55.799999"
   xml:space="preserve"
   sodipodi:docname="place_line_1.svg"><metadata
     id="metadata8"><rdf:RDF><cc:Work
         rdf:about=""><dc:format>image/svg+xml</dc:format><dc:type
           rdf:resource="http://purl.org/dc/dcmitype/StillImage" /><dc:title></dc:title></cc:Work></rdf:RDF></metadata><defs
     id="defs6" /><sodipodi:namedview
     pagecolor="#ffffff"
     bordercolor="#666666"
     borderopacity="1"
     objecttolerance="10"
     gridtolerance="10"
     guidetolerance="10"
     inkscape:pageopacity="0"
     inkscape:pageshadow="2"
     inkscape:window-width="1857"
     inkscape:window-height="1056"
     id="namedview4"
     showgrid="false"
     fit-margin-top="0"
     fit-margin-left="0"
     fit-margin-right="0"
     fit-margin-bottom="0"
     inkscape:zoom="1.888"
     inkscape:cx="363.01412"
     inkscape:cy="-105.51533"
     inkscape:window-x="63"
     inkscape:window-y="24"
     inkscape:window-maximized="1"
     inkscape:current-layer="g10" /><g
     id="g10"
     inkscape:groupmode="layer"
     inkscape:label="ink_ext_XXXXXX"
     transform="matrix(1.25,0,0,-1.25,913.3377,721.52381)"><path
       inkscape:connector-curvature="0"
       id="path12212-4"
       style="fill:#ffaaaa;fill-opacity:1;fill-rule:nonzero;stroke:none"
       d="m -730.67016,576.31805 c 0.041,-0.077 4.841,-9.573 15.886,-19.087 11.038,-9.513 28.364,-19.027 53.278,-19.022 24.792,-0.003 42.611,5.201 58.107,10.371 15.507,5.176 28.658,10.271 44.297,10.268 15.58,0.003 28.861,-6.547 38.256,-13.134 4.695,-3.291 8.414,-6.586 10.953,-9.053 1.27,-1.233 2.244,-2.259 2.899,-2.974 0.328,-0.358 0.575,-0.638 0.74,-0.827 0.082,-0.094 0.144,-0.166 0.184,-0.213 l 0.057,-0.068 1.539,1.278 c -0.039,0.045 -5.62,6.761 -15.224,13.495 -9.601,6.728 -23.249,13.492 -39.404,13.496 -16.096,-0.004 -29.493,-5.228 -44.929,-10.371 -15.446,-5.149 -32.962,-10.265 -57.475,-10.268 -24.39304,0.005 -41.20204,9.27 -51.97304,18.538 -5.381,4.634 -9.243,9.269 -11.754,12.739 -1.256,1.735 -2.173,3.178 -2.775,4.182 -0.3,0.503 -0.522,0.895 -0.667,1.16 -0.073,0.132 -0.126,0.232 -0.161,0.298 l -0.038,0.073 -0.01,0.02 -1.785,-0.901" /><path
       inkscape:connector-curvature="0"
       id="path12236-2"
       style="fill:#ffaaaa;fill-opacity:1;fill-rule:nonzero;stroke:none"
       d="m -280.24016,577.21905 -0.01,-0.02 c -0.252,-0.492 -5.121,-9.768 -15.904,-18.887 -10.789,-9.12 -27.452,-18.098 -51.464,-18.103 -24.513,0.003 -42.029,5.119 -57.475,10.268 -15.436,5.143 -28.834,10.367 -44.93,10.371 -16.154,-0.004 -29.802,-6.768 -39.403,-13.496 -9.603,-6.734 -15.185,-13.45 -15.224,-13.495 l 1.539,-1.278 0.057,0.068 c 0.624,0.736 6.335,7.315 15.668,13.684 9.336,6.373 22.27,12.519 37.363,12.517 15.639,0.003 28.791,-5.092 44.297,-10.268 15.497,-5.17 33.316,-10.374 58.108,-10.371 24.914,-0.005 42.24,9.509 53.278,19.022 11.04504,9.514 15.84504,19.01 15.88504,19.087 l -1.78504,0.901" /></g></svg>